<?xml version="1.0" standalone="no"?>
<!DOCTYPE svg PUBLIC "-//W3C//DTD SVG 20010904//EN"
 "http://www.w3.org/TR/2001/REC-SVG-20010904/DTD/svg10.dtd">
<svg version="1.0" xmlns="http://www.w3.org/2000/svg"
 width="295.000000pt" height="295.000000pt" viewBox="0 0 295.000000 295.000000"
 preserveAspectRatio="xMidYMid meet">
<metadata>
Created by potrace 1.11, written by Peter Selinger 2001-2013
</metadata>
<g transform="translate(0.000000,295.000000) scale(0.100000,-0.100000)"
fill="#000000" stroke="none">
<path d="M1225 2764 c-38 -6 -108 -22 -155 -37 -47 -14 -99 -29 -117 -32 -47
-9 -185 -68 -243 -104 -28 -17 -54 -31 -59 -31 -11 0 -122 -72 -143 -93 -9
-10 -15 -24 -12 -32 4 -9 0 -15 -9 -15 -13 0 -27 -20 -27 -39 0 -13 29 -8 34
6 3 7 10 13 16 13 6 0 9 -4 5 -9 -3 -5 0 -13 7 -17 7 -4 10 -4 6 1 -5 5 6 17
23 27 16 10 28 22 25 27 -3 5 10 8 30 7 38 -2 55 11 33 25 -8 5 -9 9 -4 10 65
6 102 5 112 -3 11 -9 31 -13 86 -17 4 -1 7 -8 7 -17 0 -13 7 -15 36 -11 28 5
33 3 25 -7 -6 -7 -8 -16 -4 -19 3 -4 -3 -7 -15 -7 -12 0 -22 -4 -22 -10 0 -5
7 -10 15 -10 11 0 14 -7 9 -25 -6 -23 -3 -25 27 -26 33 0 34 -1 9 -11 -14 -6
-38 -17 -54 -25 -16 -7 -35 -13 -43 -13 -8 0 -12 -4 -9 -9 7 -10 -22 -19 -46
-13 -9 1 -19 13 -22 25 -3 14 -13 23 -25 23 -15 0 -17 -3 -9 -13 6 -7 14 -10
19 -7 5 3 9 -15 9 -41 0 -51 -19 -68 -45 -41 -9 9 -23 16 -31 16 -24 0 -15 29
11 36 14 3 25 11 25 16 0 6 -7 7 -16 4 -9 -3 -22 -6 -30 -6 -8 0 -14 -6 -14
-13 0 -21 -37 -51 -42 -36 -7 21 -43 -12 -45 -41 -1 -14 -5 -39 -9 -57 -5 -26
-3 -32 16 -38 17 -5 19 -9 10 -15 -7 -5 -21 -3 -31 3 -14 9 -26 7 -55 -7 -25
-11 -34 -20 -26 -25 7 -4 10 -14 7 -23 -5 -12 6 -18 50 -26 30 -6 61 -9 69 -6
11 4 13 0 9 -15 -5 -18 -1 -19 41 -16 50 4 56 -3 28 -28 -23 -21 -36 -22 -29
-2 4 8 2 17 -3 20 -6 4 -10 -2 -10 -12 0 -11 -18 -32 -39 -49 -39 -29 -46 -49
-13 -37 16 6 16 5 -1 -14 -16 -18 -16 -21 -2 -26 8 -4 15 -2 15 3 0 6 5 10 11
10 8 0 8 -5 -1 -15 -7 -8 -10 -29 -8 -45 3 -17 1 -33 -4 -36 -4 -3 -8 1 -9 8
0 7 -4 3 -9 -10 -10 -23 3 -64 27 -89 6 -7 14 -26 18 -43 4 -16 11 -30 15 -30
15 0 110 -100 110 -115 0 -7 -6 -15 -12 -18 -7 -2 -10 -8 -6 -12 5 -5 16 -1
26 8 26 23 40 21 37 -5 -1 -13 -3 -23 -4 -23 -2 0 -4 -8 -6 -18 -3 -14 1 -16
18 -11 12 3 27 11 34 16 9 7 10 2 3 -24 l-10 -33 19 25 19 24 4 -29 c2 -22 9
-29 28 -32 15 -2 35 4 45 13 19 15 19 15 -5 10 l-25 -5 22 18 22 19 -22 6
c-20 6 -21 7 -4 17 9 6 15 15 12 20 -4 5 -11 6 -17 3 -6 -4 -14 0 -19 7 -7 11
-9 10 -9 -4 0 -10 -4 -16 -10 -12 -5 3 -6 13 -3 22 5 13 2 15 -11 10 -10 -4
-20 -7 -22 -7 -2 0 -4 -6 -4 -14 0 -15 -24 -28 -34 -19 -12 12 -6 22 9 17 8
-4 15 -1 15 6 0 6 7 18 15 26 8 9 15 25 15 36 0 17 -4 19 -27 14 -16 -4 -23
-3 -16 2 9 5 6 11 -9 21 -18 11 -20 11 -15 -3 5 -13 2 -13 -18 -4 -20 9 -22
14 -15 34 6 15 5 26 -2 30 -6 4 -8 3 -5 -4 11 -17 -36 -1 -60 21 -13 11 -23
26 -23 34 0 7 -7 13 -15 13 -8 0 -15 5 -15 11 0 5 5 7 10 4 6 -3 10 0 10 7 1
7 9 3 20 -10 13 -16 26 -22 39 -17 29 9 34 -10 5 -24 -14 -6 -22 -16 -19 -21
8 -13 38 -13 51 0 8 8 15 6 24 -5 19 -23 39 -18 46 10 l6 26 16 -23 c9 -13 22
-27 29 -31 7 -4 13 -15 13 -23 0 -9 -5 -12 -12 -8 -7 4 -8 3 -4 -5 4 -6 11 -9
16 -6 4 3 11 -2 14 -11 5 -12 9 -14 20 -5 7 6 21 8 30 5 13 -5 15 -14 10 -40
-6 -32 -5 -34 20 -32 17 2 25 7 22 15 -3 7 -2 13 2 13 5 0 17 7 28 16 10 8 14
13 7 10 -6 -4 -13 0 -16 6 -7 21 14 57 34 55 23 -2 20 -20 -5 -30 -19 -7 -19
-8 0 -22 10 -8 26 -15 35 -15 20 0 42 24 31 35 -4 4 5 5 21 3 18 -4 27 -1 27
8 0 8 -6 14 -12 14 -7 1 1 7 17 14 17 7 36 11 44 8 7 -3 17 1 22 9 7 10 8 5 5
-14 -6 -34 -24 -59 -38 -51 -7 5 -58 -39 -58 -50 0 -2 11 -3 25 -2 14 0 25 7
25 14 0 7 10 17 23 22 12 5 18 9 14 9 -5 1 -1 11 7 23 9 12 16 30 16 40 0 10
7 18 16 18 8 0 12 5 9 10 -3 6 3 10 14 10 38 0 22 20 -16 21 -50 2 -67 -1 -71
-12 -2 -4 -24 14 -50 40 -38 40 -49 46 -59 35 -16 -17 -8 -37 20 -49 30 -13
35 -45 8 -45 -12 0 -21 4 -21 10 0 6 -9 6 -25 0 -16 -6 -25 -6 -25 0 0 6 -7
10 -16 10 -13 0 -14 -3 -5 -14 17 -20 3 -48 -20 -41 -11 4 -19 2 -19 -5 0 -6
5 -8 10 -5 6 3 10 -2 10 -11 0 -14 -3 -15 -12 -6 -7 7 -21 12 -32 12 -20 1
-20 1 3 20 l23 20 -33 0 -34 0 27 27 c23 22 29 24 42 13 14 -11 16 -9 16 12 0
13 5 29 12 36 8 8 5 16 -13 32 l-24 21 26 -15 c14 -9 29 -13 32 -9 4 3 7 -3 7
-14 0 -12 -7 -23 -15 -27 -8 -3 -15 -10 -15 -16 0 -6 5 -8 10 -5 6 4 17 2 25
-5 9 -7 15 -8 20 0 3 5 -1 10 -9 10 -18 0 -10 29 13 46 13 10 13 14 2 28 -7 9
-20 16 -27 16 -8 0 -14 4 -14 10 0 9 26 4 45 -10 6 -4 20 -6 33 -4 13 2 22 -1
22 -9 0 -31 62 -62 92 -46 20 11 20 12 3 22 -10 5 -28 11 -39 12 -32 4 -33 4
-33 21 0 8 12 23 26 33 27 19 101 33 101 19 0 -4 -7 -8 -17 -8 -21 0 -12 -9
16 -15 11 -2 24 -6 29 -8 4 -3 16 -1 27 3 12 4 28 2 40 -6 20 -13 65 -9 65 6
0 4 -8 14 -17 21 -15 12 -16 12 -10 -4 6 -17 6 -17 -17 0 -23 17 -23 18 -4 21
11 2 27 -3 36 -11 9 -9 47 -21 85 -27 37 -7 67 -16 67 -21 0 -5 6 -9 14 -9 8
0 18 -5 22 -12 4 -7 3 -8 -4 -4 -6 4 -20 -2 -32 -14 -13 -13 -16 -20 -7 -20
21 0 50 -37 44 -55 -8 -19 -41 -19 -57 0 -7 8 -22 15 -33 15 -20 0 -20 1 -2
20 13 14 15 24 8 31 -13 13 -257 24 -249 11 3 -6 -1 -17 -9 -25 -20 -21 -19
-23 13 -36 22 -9 35 -9 63 3 28 12 42 12 72 3 20 -7 37 -18 37 -24 0 -7 5 -13
10 -13 6 0 5 -8 -2 -21 -11 -16 -21 -20 -55 -17 -24 2 -43 0 -43 -3 0 -4 -18
-6 -40 -5 -22 0 -40 -1 -40 -4 1 -12 32 -45 57 -62 30 -19 25 -21 -41 -18 -28
1 -36 -2 -31 -10 5 -8 3 -11 -6 -8 -8 3 -13 11 -12 17 2 6 -4 11 -12 11 -8 0
-15 -6 -15 -14 0 -8 -9 -24 -21 -37 -11 -13 -17 -17 -13 -9 5 11 4 12 -4 5 -6
-6 -18 -28 -25 -50 -16 -45 -37 -58 -38 -23 0 21 -1 22 -8 3 -5 -11 -5 -21 0
-23 4 -2 6 -9 3 -16 -3 -7 7 -18 21 -24 16 -8 23 -17 19 -24 -6 -9 -9 -9 -12
0 -2 7 -8 9 -13 6 -6 -3 -31 3 -57 14 -34 14 -58 18 -87 13 -49 -7 -90 -34
-80 -52 6 -8 4 -10 -4 -4 -9 5 -12 2 -9 -11 2 -11 11 -18 21 -18 9 1 17 -2 17
-7 0 -5 5 -9 10 -9 6 0 10 7 10 15 0 18 5 19 32 4 12 -6 37 -12 57 -13 27 -1
37 -6 39 -21 2 -11 8 -24 12 -29 5 -5 7 0 4 11 -4 15 2 23 26 33 18 7 29 18
26 26 -2 6 7 20 21 31 15 10 37 28 50 40 13 12 29 20 37 17 8 -3 17 -1 20 5 4
6 18 6 37 1 26 -8 32 -6 36 10 3 10 18 23 33 29 16 5 38 19 50 31 12 12 31 20
43 18 15 -2 34 9 55 31 17 19 32 37 32 42 0 4 16 18 37 30 l36 23 22 -28 c16
-21 25 -25 30 -16 5 9 4 11 -3 6 -8 -4 -12 0 -12 11 0 25 -39 41 -75 31 -35
-10 -77 -18 -122 -24 -29 -3 -32 -2 -24 18 9 26 63 35 81 13 13 -16 40 -9 58
17 7 10 20 18 28 18 8 0 14 4 14 9 0 5 10 7 23 5 20 -4 20 -4 -3 7 -21 10 -22
13 -7 16 9 3 17 9 17 15 0 6 2 9 6 6 3 -3 25 0 50 8 33 10 43 10 37 1 -9 -15
-12 -47 -3 -42 3 2 11 -5 18 -16 7 -10 8 -19 3 -19 -6 0 -3 -13 6 -28 12 -21
24 -29 44 -29 16 0 25 5 22 10 -4 6 0 8 10 4 9 -3 17 -1 19 5 3 8 10 8 25 -1
18 -9 22 -8 26 7 4 13 5 12 6 -5 1 -16 6 -21 21 -18 13 2 20 -2 20 -11 0 -9
-5 -12 -11 -8 -7 4 -10 1 -7 -7 3 -8 10 -13 15 -12 15 3 103 -93 103 -112 0
-19 24 -30 42 -19 20 13 38 13 35 1 -1 -7 9 -11 26 -9 20 3 29 -2 35 -17 4
-11 11 -20 17 -20 5 0 11 -14 12 -31 2 -17 7 -39 13 -49 6 -13 5 -24 -6 -37
-9 -11 -13 -14 -10 -7 4 6 2 15 -4 18 -6 4 -8 15 -5 25 7 22 -10 36 -22 18 -4
-7 -16 -19 -26 -27 -15 -12 -17 -12 -11 3 3 9 3 28 0 42 -5 20 -10 23 -20 15
-7 -6 -16 -8 -20 -4 -4 4 -9 -3 -13 -15 -3 -13 -13 -22 -24 -22 -13 0 -17 -5
-13 -17 5 -15 3 -15 -10 1 -9 11 -16 26 -16 33 0 17 -20 17 -21 1 0 -7 -11 11
-25 39 -16 35 -35 58 -55 69 -32 16 -46 14 -34 -5 3 -6 15 -11 26 -11 18 0 24
-14 21 -53 -1 -10 2 -16 6 -13 5 3 9 -1 9 -9 0 -8 -6 -15 -13 -15 -8 0 -10 -8
-6 -22 3 -14 2 -19 -6 -14 -15 9 -15 5 3 -35 14 -33 14 -33 15 -7 0 21 5 26
21 25 11 -1 25 -10 31 -20 7 -14 7 -17 -1 -13 -7 5 -10 -7 -7 -38 2 -28 -2
-53 -10 -64 -12 -15 -13 -14 -14 11 0 15 -5 27 -11 27 -6 0 -8 7 -5 17 4 10 4
14 0 11 -3 -4 -13 0 -21 8 -8 8 -19 11 -25 8 -6 -4 -1 -12 12 -19 15 -8 19
-15 11 -19 -16 -10 -14 -26 5 -26 8 0 12 -5 9 -11 -4 -6 -13 -8 -21 -5 -8 3
-14 1 -14 -4 0 -6 10 -10 23 -10 13 0 29 -6 35 -12 10 -10 14 -10 21 0 5 9 20
11 50 6 33 -5 47 -14 67 -43 13 -19 24 -42 24 -50 0 -8 7 -23 17 -33 11 -12
12 -18 3 -18 -7 0 -10 -7 -6 -16 3 -8 2 -13 -3 -10 -5 3 -12 -5 -15 -19 -7
-29 -42 -54 -83 -59 -34 -5 -43 0 -66 34 -19 27 -22 57 -7 80 7 12 12 12 29
-4 20 -18 51 -16 51 4 0 6 -10 8 -25 4 -18 -4 -27 -1 -31 10 -10 26 -32 18
-39 -14 -6 -27 -15 -35 -37 -31 -5 0 -8 -3 -8 -9 0 -5 9 -10 19 -10 10 0 21
-7 25 -15 3 -8 1 -15 -5 -15 -6 0 -7 -4 -4 -10 3 -6 -1 -7 -9 -4 -9 3 -16 1
-16 -4 0 -6 17 -12 37 -14 62 -5 52 -27 -11 -23 -58 4 -76 10 -76 26 0 6 4 8
9 4 5 -3 12 -1 16 5 7 11 -5 13 -29 4 -9 -3 -16 -13 -16 -21 0 -8 -4 -12 -8
-9 -11 6 -52 -21 -52 -34 0 -6 11 -9 24 -8 14 1 24 6 23 11 -1 5 12 11 28 14
29 4 29 4 10 -12 -20 -16 -20 -16 2 -10 12 3 32 8 45 10 22 4 22 4 4 -10 -11
-8 -37 -15 -59 -15 -21 0 -36 -4 -32 -9 3 -6 15 -8 27 -6 11 3 31 -4 45 -14
23 -19 24 -19 60 15 38 36 59 39 27 3 -24 -26 -80 -67 -70 -51 10 16 -6 15
-23 0 -11 -11 -13 -10 -8 5 7 20 -3 23 -21 5 -9 -9 -7 -15 6 -25 15 -13 15
-13 -8 -8 -19 5 -22 4 -10 -4 20 -14 40 -14 70 2 15 8 34 11 45 6 13 -5 14 -8
5 -8 -12 -1 -12 -3 -1 -14 11 -9 14 -9 18 1 3 6 12 12 20 12 13 0 13 -3 3 -15
-16 -20 -40 -19 -55 2 -12 16 -35 11 -35 -9 0 -6 3 -8 7 -5 9 9 53 -41 53 -61
0 -12 3 -13 12 -4 7 7 16 12 21 12 5 0 2 -7 -7 -15 -8 -8 -19 -15 -25 -15 -5
0 -13 -9 -16 -21 -4 -11 -12 -18 -19 -16 -7 3 -19 1 -27 -5 -11 -8 -10 -9 5
-4 14 5 17 2 12 -11 -4 -12 2 -9 18 8 14 17 28 24 36 19 7 -4 22 -5 34 -3 17
4 18 3 6 -6 -9 -7 -11 -11 -3 -11 7 0 17 8 22 17 10 17 12 17 41 1 16 -9 30
-13 30 -8 0 6 -4 10 -10 10 -5 0 -10 9 -10 20 0 11 -4 20 -10 20 -5 0 -10 7
-10 15 0 8 5 15 10 15 6 0 9 -6 8 -12 -2 -9 12 -14 42 -15 61 -2 76 -6 98 -26
18 -17 21 -17 36 -2 9 9 16 23 16 30 0 8 4 16 9 19 5 4 7 -4 3 -16 -3 -14 -2
-19 6 -14 7 4 12 16 12 26 0 10 5 22 10 25 6 3 10 -1 10 -11 0 -9 -18 -33 -40
-53 -22 -20 -37 -40 -33 -44 40 -41 -49 -147 -124 -147 -28 0 -35 6 -53 40
-26 51 -33 51 -13 0 9 -22 20 -40 25 -40 5 0 6 -5 3 -10 -11 -18 78 0 105 21
36 27 90 50 102 43 12 -8 84 61 105 100 11 21 12 31 3 36 -17 11 12 30 38 25
12 -2 24 0 27 6 4 5 1 9 -6 9 -8 0 -9 3 0 13 6 8 8 17 4 20 -3 4 -1 7 6 7 8 0
10 -7 6 -20 -4 -13 -1 -22 10 -26 12 -5 13 -9 4 -20 -6 -8 -17 -14 -25 -14 -7
0 -16 -5 -20 -11 -5 -8 1 -10 19 -7 20 4 25 1 22 -14 -5 -23 36 -25 55 -3 9
10 9 15 1 15 -6 0 -11 -6 -11 -12 0 -7 -6 -2 -13 12 -11 22 -10 28 7 47 22 25
37 30 34 11 -4 -18 32 -10 57 12 11 9 25 16 32 13 6 -2 14 1 18 6 3 6 13 11
21 11 8 0 -3 -17 -26 -41 -22 -23 -40 -46 -40 -51 0 -12 -26 -38 -38 -38 -5 0
-17 -9 -27 -20 -10 -11 -22 -17 -28 -13 -6 3 -7 1 -3 -5 4 -7 1 -12 -8 -12
-23 0 -20 -17 4 -23 13 -3 21 1 25 14 7 21 25 26 25 7 0 -25 92 81 119 137 39
80 103 226 105 239 1 6 7 20 13 32 7 11 19 61 28 111 8 51 22 110 30 133 21
61 21 307 -1 380 -9 29 -17 61 -19 69 -26 138 -146 436 -207 514 -17 23 -64
80 -103 127 -39 47 -86 106 -105 132 -77 109 -406 349 -524 383 -33 9 -80 27
-106 41 -26 13 -68 26 -96 27 -28 2 -54 6 -60 9 -36 23 -367 31 -489 12z m319
-15 c-3 -5 -10 -7 -15 -3 -5 3 -7 10 -3 15 3 5 10 7 15 3 5 -3 7 -10 3 -15z
m-388 -117 c17 -11 26 -49 14 -57 -29 -18 -51 -13 -61 12 -5 15 -8 32 -5 40 6
14 34 17 52 5z m-96 -102 c15 0 42 -44 33 -54 -8 -8 -33 5 -33 18 0 6 -9 17
-20 24 -11 7 -20 18 -20 24 0 9 3 9 12 0 7 -7 19 -12 28 -12z m-143 4 c-3 -3
-12 -4 -19 -1 -8 3 -5 6 6 6 11 1 17 -2 13 -5z m60 -82 c2 -10 19 -24 36 -32
34 -14 47 -27 47 -47 0 -16 -41 -38 -49 -26 -3 4 -22 19 -43 33 -36 24 -36 24
-16 42 12 10 16 18 10 18 -7 0 -12 7 -12 15 0 21 21 19 27 -3z m1047 2 c4 -9
4 -19 2 -21 -8 -8 -26 8 -26 23 0 19 16 18 24 -2z m-814 -14 c0 -11 -2 -20 -5
-20 -2 0 -9 9 -15 20 -9 16 -8 20 5 20 8 0 15 -9 15 -20z m78 -7 c33 -21 42
-33 42 -55 0 -11 -8 -18 -19 -18 -14 0 -18 5 -14 19 3 11 -2 21 -11 24 -14 6
-42 47 -31 47 3 0 18 -8 33 -17z m481 -13 c3 -25 3 -25 -18 -6 -26 23 -27 39
-3 34 9 -2 19 -14 21 -28z m451 -16 c0 -8 -9 -14 -20 -14 -17 0 -19 3 -8 19
13 21 28 19 28 -5z m-520 -28 c0 -9 -30 -14 -35 -6 -4 6 3 10 14 10 12 0 21
-2 21 -4z m-752 -41 c-3 -3 -9 2 -12 12 -6 14 -5 15 5 6 7 -7 10 -15 7 -18z
m159 -9 c24 -38 -30 -52 -76 -20 l-24 17 29 12 c31 13 60 9 71 -9z m688 -15
c10 -18 -17 -23 -33 -7 -15 15 -15 16 5 16 12 0 24 -4 28 -9z m-305 -21 c0 -5
-9 -10 -21 -10 -11 0 -17 5 -14 10 3 6 13 10 21 10 8 0 14 -4 14 -10z m-83 -6
c13 -4 20 -10 17 -15 -3 -5 7 -9 23 -10 l28 -1 -25 -7 c-26 -8 -92 17 -83 32
5 8 11 9 40 1z m-478 -69 c6 -3 11 -12 11 -18 0 -8 -3 -8 -9 1 -4 7 -12 12
-17 11 -5 -2 -19 0 -31 5 -29 9 -32 41 -3 33 11 -3 20 0 21 6 0 7 4 2 9 -9 5
-12 13 -25 19 -29z m1062 22 c-10 -9 -11 -8 -5 6 3 10 9 15 12 12 3 -3 0 -11
-7 -18z m-767 1 c-5 -8 -2 -9 9 -5 10 3 17 3 17 -2 0 -5 -9 -11 -21 -14 -12
-3 -18 -3 -15 0 3 4 1 12 -5 20 -9 10 -8 13 5 13 11 0 14 -5 10 -12z m296 -29
c0 -5 -11 -9 -25 -9 -28 0 -34 16 -7 23 20 4 32 -1 32 -14z m210 5 c0 -14 -3
-14 -15 -4 -8 7 -15 14 -15 16 0 2 7 4 15 4 8 0 15 -7 15 -16z m-342 -38 c2
-14 10 -26 18 -26 8 0 14 -5 14 -12 0 -6 8 -21 18 -32 15 -18 14 -18 -15 3
-18 12 -42 35 -53 51 -12 17 -28 30 -36 30 -8 0 -13 4 -9 9 3 5 18 8 33 7 21
-2 28 -9 30 -30z m49 8 c-3 -3 -12 -4 -19 -1 -8 3 -5 6 6 6 11 1 17 -2 13 -5z
m138 -14 c-3 -4 1 -8 8 -7 29 1 47 -4 47 -12 0 -5 -31 -9 -70 -10 -43 -1 -70
3 -70 10 0 5 -4 8 -9 4 -5 -3 -13 0 -17 6 -5 8 4 10 30 7 20 -2 36 -2 36 2 0
3 11 6 25 6 14 1 23 -2 20 -6z m232 4 c-3 -3 -12 -4 -19 -1 -8 3 -5 6 6 6 11
1 17 -2 13 -5z m57 -10 c5 -14 4 -15 -9 -4 -17 14 -19 20 -6 20 5 0 12 -7 15
-16z m251 -5 c-5 -15 -4 -19 4 -15 13 9 11 -71 -3 -93 -5 -8 -4 -16 4 -21 7
-4 9 -16 6 -27 -4 -12 -1 -25 9 -33 18 -15 20 1 3 19 -11 10 -10 11 5 6 18 -7
24 -45 7 -45 -5 0 -6 -7 -3 -17 4 -11 3 -14 -5 -9 -7 4 -12 3 -12 -2 0 -15 28
-22 34 -9 3 7 4 3 3 -8 -2 -11 -8 -19 -14 -18 -6 1 -9 -6 -6 -17 7 -24 -14
-26 -45 -4 -25 17 -28 36 -8 53 11 9 12 20 5 44 -6 20 -5 33 1 35 5 2 2 19 -8
38 -13 29 -14 39 -4 55 7 11 10 25 6 30 -3 6 -1 22 7 35 15 30 23 31 14 3z
m-1486 -2 c6 -8 8 -16 6 -19 -3 -3 -8 -16 -10 -28 -3 -13 -10 -28 -16 -34 -8
-8 -8 -5 0 12 10 19 9 23 -14 34 -24 11 -32 28 -18 41 11 12 40 8 52 -6z m225
-6 c3 -5 -8 -11 -26 -13 -28 -5 -29 -4 -13 9 22 15 32 16 39 4z m414 -31 c11
0 23 -25 16 -33 -9 -8 -44 5 -45 17 0 6 -2 20 -4 31 -3 19 -3 19 9 3 7 -10 18
-18 24 -18z m687 10 c3 -6 -1 -7 -9 -4 -18 7 -21 14 -7 14 6 0 13 -4 16 -10z
m-449 -67 c-7 -8 -46 22 -46 34 0 8 10 4 25 -9 14 -12 23 -23 21 -25z m164 21
c0 -12 -4 -12 -20 -4 -11 6 -18 15 -15 20 8 13 35 0 35 -16z m-686 -39 c9 -18
16 -40 16 -48 0 -27 -29 -27 -57 -1 -15 14 -40 33 -55 42 -35 20 -35 28 -1 39
46 16 80 4 97 -32z m-314 25 c0 -5 -8 -10 -17 -10 -15 0 -16 2 -3 10 19 12 20
12 20 0z m657 -4 c-3 -8 -1 -17 6 -19 7 -2 9 -7 6 -11 -3 -3 -16 2 -28 13 -16
14 -18 21 -9 24 23 9 30 7 25 -7z m298 -35 c5 -27 8 -32 27 -35 16 -3 78 -34
96 -49 8 -6 28 -12 45 -13 46 -2 51 -3 44 -11 -4 -3 0 -15 10 -25 15 -17 15
-18 -2 -18 -11 0 -31 12 -47 27 -23 22 -28 24 -33 10 -6 -14 -11 -13 -47 3
-23 10 -45 25 -50 34 -5 9 -14 13 -21 9 -7 -4 -23 -8 -37 -8 -14 -1 -41 -5
-60 -9 -24 -6 -32 -5 -25 2 6 6 26 14 45 17 19 3 36 7 37 9 2 1 -2 17 -8 34
-7 21 -18 32 -30 32 -10 0 -19 5 -19 12 0 6 3 9 6 5 4 -3 13 1 22 9 13 13 17
13 29 2 7 -8 15 -25 18 -37z m-1015 25 c0 -3 -4 -8 -10 -11 -5 -3 -10 -1 -10
4 0 6 5 11 10 11 6 0 10 -2 10 -4z m113 -21 c4 -8 1 -17 -5 -21 -7 -4 -8 -3
-4 4 4 7 1 12 -9 12 -9 0 -15 -6 -13 -12 3 -7 -5 -21 -18 -30 -27 -22 -35 -23
-28 -3 4 9 0 15 -9 15 -8 0 -18 -6 -20 -12 -4 -10 -6 -10 -6 0 -1 7 14 19 33
27 19 8 37 19 41 25 9 15 32 12 38 -5z m377 0 c-14 -17 -30 -20 -30 -6 0 5 8
12 18 14 9 3 19 5 21 6 2 0 -2 -6 -9 -14z m671 -25 c43 -13 69 -30 69 -45 0
-11 -6 -12 -32 -3 -18 6 -36 16 -40 22 -6 8 -11 7 -17 -3 -7 -11 -13 -6 -26
19 -16 32 -16 33 1 25 11 -4 31 -11 45 -15z m-628 -15 c-17 -23 -72 -37 -58
-15 5 8 53 34 73 39 2 1 -5 -10 -15 -24z m241 -3 c-22 -5 -31 7 -14 18 9 6 17
5 22 -3 4 -7 1 -13 -8 -15z m152 16 c4 -7 3 -8 -4 -4 -6 4 -21 2 -32 -4 -12
-6 -20 -7 -20 -1 0 19 45 27 56 9z m-339 -35 c15 -32 16 -31 -22 -33 -47 -3
-48 -2 -25 30 26 37 32 37 47 3z m-422 -12 c10 -18 -17 -23 -33 -7 -15 15 -15
16 5 16 12 0 24 -4 28 -9z m715 -35 c0 -8 -8 -17 -17 -20 -10 -4 -14 -4 -10 0
4 4 2 13 -4 21 -9 10 -7 13 10 13 11 0 21 -6 21 -14z m157 -5 c10 -16 9 -22
-3 -32 -18 -14 -32 -3 -16 13 8 8 7 15 -6 24 -14 11 -14 13 -2 14 8 0 21 -9
27 -19z m-955 -3 c-14 -14 -16 -32 -3 -24 15 9 41 -5 41 -21 0 -20 39 -83 63
-103 15 -13 16 -20 8 -42 -9 -25 -13 -27 -36 -18 -27 10 -33 2 -13 -18 7 -7 8
-12 2 -12 -15 0 -41 31 -46 55 -2 13 -10 19 -23 17 -16 -2 -17 -1 -6 7 8 5 24
6 35 2 24 -8 56 -4 56 8 0 11 -88 90 -94 85 -3 -2 -4 -1 -1 3 3 3 0 12 -6 20
-9 10 -8 18 6 33 10 11 21 20 24 20 3 0 0 -5 -7 -12z m726 -32 c28 -15 18 -26
-40 -47 -20 -7 -36 -17 -35 -22 1 -5 -5 -12 -13 -14 -11 -3 -12 -2 -2 4 10 7
8 14 -8 28 -11 10 -20 23 -20 29 0 6 7 3 14 -6 7 -10 21 -18 31 -18 12 0 15 5
10 18 -5 14 -4 15 6 5 20 -20 28 -16 24 12 -3 28 1 29 33 11z m477 4 c3 -6 -1
-7 -9 -4 -18 7 -21 14 -7 14 6 0 13 -4 16 -10z m-291 -20 c20 -20 -2 -19 -40
1 l-39 20 35 -6 c19 -3 39 -10 44 -15z m-794 -9 c16 -30 12 -36 -10 -16 -21
19 -26 35 -10 35 5 0 14 -9 20 -19z m190 -9 c0 -4 -9 -13 -20 -20 -18 -11 -19
-10 -8 13 10 21 28 26 28 7z m33 -43 c-9 -9 -12 -7 -10 9 1 14 5 18 11 12 7
-7 6 -14 -1 -21z m67 27 c0 -2 -7 -7 -16 -10 -8 -3 -12 -2 -9 4 6 10 25 14 25
6z m-198 -35 c-29 -10 -50 -19 -47 -22 3 -3 -2 -6 -10 -6 -10 0 -12 4 -5 12 6
7 6 15 0 21 -5 5 15 9 53 10 l62 1 -53 -16z m-57 -51 c3 -5 1 -10 -4 -10 -6 0
-11 5 -11 10 0 6 2 10 4 10 3 0 8 -4 11 -10z m80 -31 c24 -22 47 -40 52 -40
18 2 9 -39 -10 -45 -15 -5 -26 2 -44 25 -14 17 -29 28 -35 25 -7 -4 -8 -2 -4
5 4 6 3 17 -2 24 -9 11 -13 47 -5 47 2 0 23 -18 48 -41z m725 32 c0 -5 -7 -12
-16 -15 -14 -5 -15 -4 -4 9 14 17 20 19 20 6z m254 -6 c18 -14 18 -15 2 -15
-9 0 -24 7 -32 15 -21 20 4 20 30 0z m380 -59 c-3 -17 -14 -40 -23 -50 -9 -11
-10 -16 -3 -12 6 4 12 3 12 -2 0 -16 -13 -22 -27 -11 -16 14 -17 39 0 39 6 0
17 11 23 24 9 20 9 26 -2 30 -8 3 -11 12 -8 21 5 12 9 13 21 4 9 -8 12 -22 7
-43z m-1638 19 c20 -19 11 -32 -18 -29 -13 1 -27 3 -32 3 -8 1 22 39 32 40 2
1 10 -6 18 -14z m1264 0 c0 -8 6 -15 13 -16 37 -2 54 -11 83 -46 18 -21 30
-41 28 -45 -6 -9 -58 1 -62 13 -2 5 -8 9 -14 9 -5 0 -18 10 -28 23 -10 12 -21
19 -25 16 -3 -4 1 -14 10 -23 9 -9 12 -16 6 -16 -9 0 -51 52 -51 64 0 3 7 6
15 6 9 0 12 6 9 15 -4 8 -1 15 5 15 6 0 11 -7 11 -15z m-239 -44 c-12 -12 -22
-19 -22 -16 -6 22 -2 31 16 36 28 8 30 4 6 -20z m725 -29 c1 -12 -3 -22 -7
-22 -5 0 -9 4 -9 9 0 5 -3 17 -7 27 -4 12 -2 15 8 12 8 -3 15 -14 15 -26z
m-1611 -10 c-3 -3 -11 0 -18 7 -9 10 -8 11 6 5 10 -3 15 -9 12 -12z m21 -39
c-11 -11 -17 4 -9 23 7 18 8 18 11 1 2 -10 1 -21 -2 -24z m361 -8 c0 -8 -4
-15 -9 -15 -4 0 -8 7 -8 15 0 8 4 15 8 15 5 0 9 -7 9 -15z m1064 -66 c-22 -18
-30 -45 -8 -33 6 4 3 -2 -7 -14 -24 -28 -36 -28 -36 -1 0 29 18 59 36 59 8 0
18 8 21 17 5 13 8 14 11 3 3 -7 -5 -21 -17 -31z m379 26 c0 -8 -4 -15 -9 -15
-13 0 -22 16 -14 24 11 11 23 6 23 -9z m120 -5 c0 -5 -5 -10 -11 -10 -5 0 -7
5 -4 10 3 6 8 10 11 10 2 0 4 -4 4 -10z m-1336 -111 c-36 -37 -38 -37 -11 5
12 18 26 31 30 29 5 -3 -4 -18 -19 -34z m836 9 c0 -7 -4 -19 -9 -27 -11 -17
-23 1 -15 23 7 19 24 21 24 4z m330 -5 c0 -10 -9 -29 -20 -43 -62 -78 -61 -77
-35 -22 14 28 30 52 35 52 6 0 9 3 9 8 -2 12 1 22 6 22 3 0 5 -8 5 -17z m-420
-1 c0 -13 -12 -22 -22 -16 -10 6 -1 24 13 24 5 0 9 -4 9 -8z m-20 -32 c6 -11
7 -20 2 -20 -10 0 -32 21 -32 32 0 16 19 8 30 -12z m126 5 c-4 -24 -16 -30
-16 -7 0 12 4 22 9 22 5 0 8 -7 7 -15z m-1023 -10 c8 -8 18 -11 22 -7 4 4 6 1
3 -7 -2 -8 -18 -16 -35 -18 -28 -4 -30 -2 -26 22 6 29 15 31 36 10z m952 5
c-3 -5 -12 -10 -18 -10 -7 0 -6 4 3 10 19 12 23 12 15 0z m96 -23 c-10 -9 -11
-8 -5 6 3 10 9 15 12 12 3 -3 0 -11 -7 -18z m326 -112 c0 -17 -13 -20 -21 -6
-4 5 0 12 6 14 7 3 13 6 14 6 0 1 1 -6 1 -14z m-447 -70 c-14 -7 -27 -11 -30
-9 -6 7 22 24 40 23 9 0 5 -6 -10 -14z m-30 -34 c0 -5 -10 -13 -21 -16 -15 -5
-18 -10 -9 -15 8 -5 8 -9 -4 -13 -10 -4 -20 1 -26 13 -8 16 -8 18 4 14 8 -3
20 2 27 10 16 17 29 20 29 7z m233 -90 c-1 -28 -24 -60 -44 -61 -12 0 -16 49
-5 61 8 9 8 10 -1 5 -16 -9 -17 9 -1 34 19 30 54 3 51 -39z m-250 19 c7 0 4
-5 -6 -11 -21 -12 -51 -4 -42 12 4 6 14 8 22 5 8 -3 20 -6 26 -6z m647 -60 c0
-5 -5 -10 -11 -10 -5 0 -7 5 -4 10 3 6 8 10 11 10 2 0 4 -4 4 -10z m-55 -57
c-8 -55 -27 -86 -22 -35 2 18 7 35 10 39 4 3 7 15 7 25 0 10 3 18 6 18 4 0 3
-21 -1 -47z m-318 22 c0 -8 -4 -15 -9 -15 -10 0 -11 14 -1 23 9 10 10 9 10 -8z
m368 -15 c-4 -12 -9 -19 -12 -17 -3 3 -2 15 2 27 4 12 9 19 12 17 3 -3 2 -15
-2 -27z m-429 -22 c-8 -41 -19 -68 -27 -68 -5 0 -7 6 -5 13 3 6 7 24 10 40 4
15 10 27 15 27 5 0 8 -6 7 -12z m-36 -2 c0 -2 -8 -10 -17 -17 -16 -13 -17 -12
-4 4 13 16 21 21 21 13z m272 -48 c-8 -8 -9 -4 -5 13 4 13 8 18 11 10 2 -7 -1
-18 -6 -23z m282 -7 c3 -5 -1 -14 -8 -20 -16 -13 -32 2 -21 19 8 12 22 13 29
1z m-611 -19 c-2 -6 6 -14 17 -17 38 -12 17 -39 -31 -40 -18 -1 -25 4 -22 12
3 7 9 13 13 13 12 0 19 38 9 44 -5 2 -4 3 3 2 7 -2 12 -8 11 -14z m453 -5 c-6
-32 -18 -57 -29 -57 -8 0 -8 3 1 12 7 7 12 25 12 41 0 15 4 26 9 23 5 -4 8
-12 7 -19z m-414 -74 c-7 -3 -19 -12 -28 -20 -25 -26 -28 -5 -3 21 17 18 27
22 34 14 7 -7 6 -12 -3 -15z m38 12 c-7 -9 -10 -18 -7 -22 4 -3 -2 -17 -13
-31 -11 -13 -17 -28 -15 -32 3 -5 1 -11 -5 -15 -5 -3 -10 -1 -10 4 0 6 -18 11
-41 11 -23 0 -38 4 -34 10 3 5 20 8 37 6 36 -4 62 16 72 57 3 15 11 27 17 27
8 0 7 -5 -1 -15z m71 -27 c-3 -21 -6 -26 -9 -15 -3 17 3 47 11 47 2 0 1 -15
-2 -32z m-161 18 c0 -3 -4 -8 -10 -11 -5 -3 -10 -1 -10 4 0 6 5 11 10 11 6 0
10 -2 10 -4z m437 -28 c-3 -7 -5 -2 -5 12 0 14 2 19 5 13 2 -7 2 -19 0 -25z
m-520 8 c0 -8 -6 -12 -15 -9 -11 5 -11 7 0 14 7 5 13 9 14 9 0 0 1 -6 1 -14z
m671 -11 c-7 -16 -15 -22 -21 -16 -13 13 -1 41 17 41 13 0 14 -4 4 -25z m-203
-5 c18 -20 17 -47 -4 -102 -13 -35 -37 -36 -43 -3 -4 16 -1 25 8 25 14 0 14
24 0 27 -5 0 -13 8 -18 17 -5 9 -15 13 -24 9 -14 -5 -15 -3 -5 15 19 36 59 42
86 12z m-442 -20 c-3 -11 -9 -17 -14 -15 -9 6 -50 -14 -61 -30 -4 -5 -6 0 -5
13 1 13 6 21 14 18 7 -3 18 1 25 8 8 7 20 15 28 19 8 3 16 6 17 6 0 1 -1 -8
-4 -19z m281 5 c-6 -16 -24 -21 -24 -7 0 11 11 22 21 22 5 0 6 -7 3 -15z m-74
-29 c0 -2 -8 -10 -17 -17 -16 -13 -17 -12 -4 4 13 16 21 21 21 13z m-66 -21
c-4 -8 -10 -12 -15 -9 -11 6 -2 24 11 24 5 0 7 -7 4 -15z m516 11 c0 -2 -8
-10 -17 -17 -16 -13 -17 -12 -4 4 13 16 21 21 21 13z m-420 -31 c-10 -12 -10
-15 4 -15 19 0 21 -16 4 -26 -6 -4 -8 -3 -5 3 4 6 0 14 -8 17 -13 5 -14 10 -5
27 7 11 14 18 17 15 3 -3 0 -12 -7 -21z m-133 9 c-3 -3 -12 -4 -19 -1 -8 3 -5
6 6 6 11 1 17 -2 13 -5z m-207 -8 c0 -3 -4 -8 -10 -11 -5 -3 -10 -1 -10 4 0 6
5 11 10 11 6 0 10 -2 10 -4z m106 -11 c-8 -8 -18 -15 -22 -15 -3 0 -1 7 6 15
7 8 17 15 22 15 5 0 3 -7 -6 -15z m74 1 c0 -2 -7 -9 -15 -16 -13 -11 -14 -10
-9 4 5 14 24 23 24 12z m64 -5 c3 -5 -2 -15 -12 -22 -15 -12 -16 -12 -5 2 7 9
10 19 6 22 -3 4 -4 7 0 7 3 0 8 -4 11 -9z m24 -50 c-31 -38 -79 -60 -109 -49
-12 5 -29 6 -36 4 -20 -8 -16 21 5 29 34 15 49 12 44 -7 -5 -21 9 -23 41 -5
40 22 67 50 68 71 1 17 2 18 6 3 2 -9 -6 -30 -19 -46z m-221 43 c-3 -3 -12 -4
-19 -1 -8 3 -5 6 6 6 11 1 17 -2 13 -5z m378 -14 c-5 -16 -2 -20 17 -20 l23 0
-25 -13 c-31 -16 -70 -27 -70 -20 0 3 9 21 21 39 23 37 44 46 34 14z m-327
-20 c-14 -21 -45 -36 -55 -26 -4 3 -14 -1 -24 -10 -9 -8 -20 -11 -23 -6 -6 10
35 33 69 39 11 2 24 8 29 13 16 16 17 12 4 -10z m232 9 c0 -4 -7 -9 -15 -13
-9 -3 -15 0 -15 8 0 7 7 13 15 13 8 0 15 -4 15 -8z m36 -88 c-9 -10 -13 -21
-9 -24 3 -4 1 -7 -6 -7 -7 0 -10 6 -7 13 3 6 9 20 12 29 4 10 11 15 16 12 5
-3 3 -13 -6 -23z m-309 -7 c-3 -3 -12 -4 -19 -1 -8 3 -5 6 6 6 11 1 17 -2 13
-5z m286 -41 c11 -10 17 -12 13 -5 -4 6 -3 12 3 12 5 0 17 3 27 7 13 5 15 3 8
-8 -5 -8 -9 -17 -9 -21 0 -7 -65 -58 -74 -58 -2 0 5 10 17 23 24 25 20 37 -12
38 -13 0 -16 3 -7 6 11 5 11 7 0 14 -12 7 -12 9 0 9 8 0 23 -8 34 -17z m-26
-40 c-9 -9 -20 -13 -24 -9 -4 4 -1 11 7 16 25 16 35 11 17 -7z"/>
<path d="M786 2431 c-3 -5 1 -11 9 -15 8 -3 15 -1 15 4 0 13 -18 22 -24 11z"/>
<path d="M647 2394 c-8 -14 8 -37 22 -33 8 3 8 10 -2 23 -8 11 -17 15 -20 10z"/>
<path d="M838 2353 c7 -3 16 -2 19 1 4 3 -2 6 -13 5 -11 0 -14 -3 -6 -6z"/>
<path d="M790 2311 c-24 -22 -24 -23 -3 -17 12 4 24 3 27 -3 8 -12 39 -7 44 7
2 7 -5 15 -15 19 -10 3 -20 9 -23 12 -3 4 -16 -4 -30 -18z"/>
<path d="M330 2239 c0 -6 -9 -22 -19 -36 -11 -13 -17 -31 -14 -40 5 -12 2 -14
-8 -9 -8 4 -5 0 5 -8 11 -9 23 -16 28 -16 4 0 8 -7 8 -15 0 -8 5 -15 11 -15 8
0 8 -5 -1 -15 -14 -17 -45 -21 -35 -5 9 14 -19 12 -33 -2 -7 -7 -12 -20 -12
-30 0 -22 38 -25 46 -3 4 10 13 13 26 9 12 -4 24 0 32 11 13 19 10 65 -5 65
-5 0 -9 7 -9 16 0 9 -5 12 -11 8 -8 -5 -10 0 -6 17 3 13 9 36 12 52 5 17 3 27
-4 27 -6 0 -11 -5 -11 -11z"/>
<path d="M410 2175 c-20 -24 -6 -28 15 -5 10 11 13 20 8 20 -6 0 -16 -7 -23
-15z"/>
<path d="M490 2180 c-13 -8 -13 -10 2 -10 9 0 20 5 23 10 8 13 -5 13 -25 0z"/>
<path d="M448 2128 c-3 -7 -2 -23 1 -34 5 -19 8 -20 19 -8 7 8 9 14 5 15 -4 0
1 4 12 9 17 7 17 9 3 9 -10 1 -18 6 -18 11 0 14 -17 12 -22 -2z"/>
<path d="M241 2106 c-16 -19 -11 -29 8 -17 7 5 12 14 9 21 -3 9 -8 7 -17 -4z"/>
<path d="M204 2038 c-5 -13 -7 -27 -6 -32 2 -4 -4 -19 -12 -31 -12 -18 -12
-25 -3 -28 8 -3 4 -11 -10 -22 -26 -19 -30 -35 -8 -35 8 0 15 6 15 13 0 7 9
23 21 36 12 12 19 25 16 28 -3 2 3 25 13 49 19 43 19 44 0 44 -10 0 -22 -10
-26 -22z"/>
<path d="M352 2018 c-12 -12 -40 -14 -74 -5 -33 9 -35 -1 -8 -31 11 -12 22
-36 24 -54 2 -18 12 -37 21 -43 10 -5 25 -18 34 -27 18 -21 42 -23 58 -7 13
13 -6 39 -26 39 -6 0 -11 7 -11 15 0 8 -10 24 -22 35 -21 19 -21 23 -7 33 9 7
18 21 20 31 4 17 6 17 29 -4 14 -12 19 -19 13 -15 -7 3 -13 3 -13 -2 0 -4 -3
-18 -6 -30 -5 -17 -2 -23 10 -23 9 0 16 4 16 10 0 5 9 17 19 27 13 12 17 23
12 31 -11 18 -77 32 -89 20z"/>
<path d="M245 1950 c-3 -5 1 -10 9 -10 8 0 18 5 21 10 3 6 -1 10 -9 10 -8 0
-18 -4 -21 -10z"/>
<path d="M458 1913 c-25 -4 -27 -7 -17 -24 10 -19 12 -19 28 -5 10 9 21 13 25
9 4 -4 4 0 0 10 -3 9 -7 16 -8 16 0 -1 -13 -4 -28 -6z"/>
<path d="M576 1912 c-3 -5 1 -9 9 -9 8 0 12 4 9 9 -3 4 -7 8 -9 8 -2 0 -6 -4
-9 -8z"/>
<path d="M136 1858 c-9 -34 -7 -50 4 -43 6 3 10 1 10 -6 0 -8 4 -8 16 1 8 8
14 25 12 39 -4 33 -33 40 -42 9z"/>
<path d="M254 1843 c-8 -3 -8 -14 1 -41 10 -28 10 -39 2 -44 -8 -5 -4 -8 8 -8
17 0 20 6 19 40 -1 42 -11 60 -30 53z"/>
<path d="M459 1833 c-1 -5 -1 -11 -1 -14 1 -4 -9 -9 -22 -11 -17 -3 -23 -1
-19 8 3 8 -2 11 -15 7 -23 -6 -35 -42 -26 -78 7 -29 2 -31 -31 -9 -20 13 -25
14 -26 3 -4 -42 16 -66 39 -47 7 6 27 13 44 15 16 2 44 14 60 28 16 14 35 25
43 25 7 0 15 6 18 14 7 18 -28 50 -44 40 -9 -5 -10 -2 -6 9 3 10 2 17 -3 17
-6 0 -11 -3 -11 -7z"/>
<path d="M316 1776 c3 -9 11 -16 16 -16 13 0 5 23 -10 28 -7 2 -10 -2 -6 -12z"/>
<path d="M210 1686 c0 -8 5 -18 10 -21 6 -3 10 3 10 14 0 12 -4 21 -10 21 -5
0 -10 -6 -10 -14z"/>
<path d="M473 1663 c-19 -7 -16 -19 6 -20 11 -1 22 5 25 13 5 14 -8 17 -31 7z"/>
<path d="M226 1635 c-3 -8 -1 -15 4 -15 13 0 22 18 11 24 -5 3 -11 -1 -15 -9z"/>
<path d="M422 1626 c4 -4 3 -18 -2 -31 -8 -20 -6 -22 20 -21 42 2 58 21 31 35
-12 7 -21 9 -21 5 0 -3 -8 0 -17 7 -10 7 -15 10 -11 5z"/>
<path d="M1728 1623 c7 -3 16 -2 19 1 4 3 -2 6 -13 5 -11 0 -14 -3 -6 -6z"/>
<path d="M375 1590 c3 -5 8 -10 11 -10 2 0 4 5 4 10 0 6 -5 10 -11 10 -5 0 -7
-4 -4 -10z"/>
<path d="M272 1573 c5 -18 2 -21 -16 -16 -41 9 -51 8 -51 -7 -2 -24 14 -38 35
-33 12 3 20 0 20 -7 0 -6 10 -10 23 -8 13 2 21 9 19 18 -2 8 -4 22 -5 31 0 8
-8 22 -16 29 -12 12 -14 11 -9 -7z"/>
<path d="M125 1530 c9 -31 11 -33 25 -28 7 2 3 13 -11 28 l-21 25 7 -25z"/>
<path d="M816 1541 c-4 -5 -2 -12 3 -15 5 -4 12 -2 15 3 4 5 2 12 -3 15 -5 4
-12 2 -15 -3z"/>
<path d="M470 1495 c-7 -14 -18 -25 -24 -25 -14 -1 -64 -39 -50 -40 5 0 15 5
22 12 9 9 13 8 17 -5 4 -9 12 -14 19 -11 6 2 19 -9 29 -25 18 -30 57 -39 57
-13 0 7 -4 10 -10 7 -7 -4 -7 2 0 19 8 21 6 27 -11 36 -10 6 -25 7 -32 3 -6
-4 -20 -9 -30 -10 -17 -3 -17 -1 -3 12 8 8 19 15 24 15 14 0 24 32 14 42 -5 5
-14 -3 -22 -17z"/>
<path d="M370 1460 c0 -5 5 -10 11 -10 5 0 7 5 4 10 -3 6 -8 10 -11 10 -2 0
-4 -4 -4 -10z"/>
<path d="M15 1437 c-4 -10 -3 -23 3 -29 14 -14 21 3 12 27 -7 19 -8 19 -15 2z"/>
<path d="M570 1433 c0 -10 19 -40 21 -33 0 3 2 13 4 23 2 9 -3 17 -11 17 -8 0
-14 -3 -14 -7z"/>
<path d="M637 1414 c-12 -12 6 -34 29 -34 17 0 24 6 24 20 0 14 -7 20 -23 20
-13 0 -26 -3 -30 -6z"/>
<path d="M1590 1411 c0 -7 -4 -10 -9 -6 -5 3 -17 -4 -25 -16 -14 -21 -14 -23
10 -36 15 -7 31 -10 36 -7 6 4 14 0 19 -7 6 -10 9 -8 9 9 0 25 -10 28 -29 10
-10 -11 -11 -10 -6 5 5 10 2 17 -5 17 -10 0 -10 3 0 15 7 9 10 18 6 22 -3 3
-6 1 -6 -6z"/>
<path d="M1070 1394 c0 -8 5 -12 10 -9 6 3 10 10 10 16 0 5 -4 9 -10 9 -5 0
-10 -7 -10 -16z"/>
<path d="M688 1376 c-25 -18 -23 -36 3 -31 33 7 53 26 37 36 -17 11 -20 11
-40 -5z"/>
<path d="M1870 1382 c0 -10 22 -32 32 -32 15 0 8 15 -12 28 -11 7 -20 9 -20 4z"/>
<path d="M600 1319 c0 -5 5 -7 10 -4 6 3 10 8 10 11 0 2 -4 4 -10 4 -5 0 -10
-5 -10 -11z"/>
<path d="M665 1309 c-10 -15 1 -23 20 -15 9 3 13 10 10 16 -8 13 -22 13 -30
-1z"/>
<path d="M1440 1310 c-19 -5 -38 -6 -43 -3 -4 2 -18 -2 -30 -10 -12 -7 -39
-14 -59 -15 -65 -1 -68 -2 -68 -19 0 -10 -16 -29 -34 -43 -19 -14 -36 -36 -39
-50 -2 -14 -8 -34 -12 -44 -5 -11 8 -2 29 20 31 33 36 35 31 15 -5 -17 -4 -22
5 -16 8 5 11 4 7 -3 -4 -5 -15 -8 -25 -5 -19 5 -55 -38 -55 -64 0 -7 -4 -10
-9 -7 -4 3 -8 -3 -8 -13 0 -11 -5 -24 -11 -30 -7 -7 -9 -20 -5 -30 6 -15 9
-15 16 -3 5 8 12 11 16 8 10 -10 46 11 39 23 -8 11 3 49 14 49 5 0 7 -11 6
-25 -2 -14 0 -25 5 -25 10 0 20 25 20 50 0 17 47 44 66 38 14 -4 108 24 119
36 6 6 11 22 13 36 3 35 30 52 70 45 30 -6 44 6 23 20 -6 3 -6 17 -1 34 11 41
-7 48 -80 31z m-50 -71 c0 -5 4 -8 9 -4 16 9 20 -9 5 -23 -11 -10 -15 -8 -24
7 -13 25 -13 31 0 31 6 0 10 -5 10 -11z m-95 -47 c-20 -10 -30 -11 -40 -2 -8
7 -19 9 -25 5 -5 -3 -10 -4 -10 -1 0 3 12 12 27 20 21 10 33 11 51 3 l23 -11
-26 -14z m47 -24 c-7 -7 -12 -8 -12 -2 0 14 12 26 19 19 2 -3 -1 -11 -7 -17z"/>
<path d="M763 1295 c-9 -10 -10 -16 -2 -21 6 -3 15 0 20 7 18 29 4 40 -18 14z"/>
<path d="M607 1263 c-4 -3 -7 -11 -7 -17 0 -6 5 -5 12 2 6 6 9 14 7 17 -3 3
-9 2 -12 -2z"/>
<path d="M696 1249 c-19 -19 -19 -19 1 -19 12 0 23 8 26 20 6 25 -2 25 -27 -1z"/>
<path d="M1530 1260 c0 -5 5 -10 11 -10 5 0 7 5 4 10 -3 6 -8 10 -11 10 -2 0
-4 -4 -4 -10z"/>
<path d="M2205 1261 c-6 -11 9 -23 19 -14 9 9 7 23 -3 23 -6 0 -12 -4 -16 -9z"/>
<path d="M1545 1230 c-3 -5 -1 -18 4 -28 6 -11 7 -22 4 -26 -3 -3 -1 -6 5 -6
7 0 12 15 12 35 0 34 -12 46 -25 25z"/>
<path d="M616 1203 c-11 -11 -6 -23 9 -23 8 0 15 4 15 9 0 13 -16 22 -24 14z"/>
<path d="M1511 1188 c-1 -30 -10 -35 -29 -16 -10 10 -15 10 -22 -2 -5 -8 -6
-18 -3 -23 8 -13 -55 -64 -90 -72 -50 -11 -81 -12 -92 -4 -15 11 -29 -1 -45
-39 -10 -26 -10 -36 -1 -41 7 -4 11 -14 9 -21 -2 -7 3 -15 10 -17 7 -3 12 3
13 14 0 16 1 16 9 -2 12 -27 12 -37 1 -30 -5 3 -12 1 -15 -4 -3 -5 0 -11 7
-14 8 -3 19 4 26 14 6 11 16 17 21 14 6 -3 10 -2 10 4 0 5 9 8 19 6 13 -2 21
4 25 18 5 22 5 22 20 2 14 -18 15 -18 16 -2 0 10 6 17 13 16 31 -4 35 2 31 41
-2 22 1 40 6 40 5 0 11 9 15 19 3 11 14 23 24 26 28 9 46 50 33 77 -10 23 -11
23 -11 -4z"/>
<path d="M835 1180 c-3 -5 1 -10 10 -10 9 0 13 5 10 10 -3 6 -8 10 -10 10 -2
0 -7 -4 -10 -10z"/>
<path d="M1007 1161 c-4 -17 -3 -21 5 -13 5 5 8 16 6 23 -3 8 -7 3 -11 -10z"/>
<path d="M1920 1166 c0 -9 5 -16 10 -16 6 0 10 4 10 9 0 6 -4 13 -10 16 -5 3
-10 -1 -10 -9z"/>
<path d="M607 1163 c-17 -16 -6 -33 18 -29 14 3 25 0 25 -6 0 -6 3 -8 7 -5 3
4 -2 16 -12 27 -19 21 -28 24 -38 13z"/>
<path d="M745 1160 c-3 -5 -1 -10 4 -10 6 0 11 5 11 10 0 6 -2 10 -4 10 -3 0
-8 -4 -11 -10z"/>
<path d="M888 1163 c7 -3 16 -2 19 1 4 3 -2 6 -13 5 -11 0 -14 -3 -6 -6z"/>
<path d="M1042 1140 c0 -14 2 -19 5 -12 2 6 2 18 0 25 -3 6 -5 1 -5 -13z"/>
<path d="M557 1144 c-4 -4 -7 -14 -7 -23 0 -11 3 -12 11 -4 6 6 10 16 7 23 -2
6 -7 8 -11 4z"/>
<path d="M1059 1114 c-2 -43 1 -56 17 -72 12 -12 18 -12 27 -2 9 10 9 14 -1
17 -6 3 -10 9 -6 14 3 5 0 9 -6 9 -7 0 -9 8 -5 19 3 10 -1 24 -10 31 -13 11
-15 8 -16 -16z"/>
<path d="M825 1121 c-6 -11 13 -26 22 -17 4 3 1 6 -6 6 -7 0 -9 5 -6 10 3 6 4
10 1 10 -3 0 -7 -4 -11 -9z"/>
<path d="M973 1106 c-6 -8 -9 -17 -6 -20 7 -7 33 13 33 25 0 13 -13 10 -27 -5z"/>
<path d="M1640 1110 c0 -5 5 -10 11 -10 5 0 7 5 4 10 -3 6 -8 10 -11 10 -2 0
-4 -4 -4 -10z"/>
<path d="M1029 1090 c-7 -28 -6 -61 3 -66 7 -4 8 -2 4 5 -4 6 -2 19 5 27 9 11
9 18 1 26 -7 7 -13 10 -13 8z"/>
<path d="M1640 1079 c0 -5 5 -7 10 -4 6 3 10 8 10 11 0 2 -4 4 -10 4 -5 0 -10
-5 -10 -11z"/>
<path d="M860 1069 c0 -5 5 -7 12 -3 7 5 9 2 5 -9 -3 -9 0 -18 8 -21 20 -7 29
12 15 29 -14 17 -40 20 -40 4z"/>
<path d="M987 1067 c-4 -10 0 -32 7 -50 16 -35 19 -16 7 38 -5 24 -8 27 -14
12z"/>
<path d="M456 1045 c-3 -8 -1 -15 4 -15 6 0 10 7 10 15 0 8 -2 15 -4 15 -2 0
-6 -7 -10 -15z"/>
<path d="M1910 1050 c0 -5 5 -10 10 -10 6 0 10 5 10 10 0 6 -4 10 -10 10 -5 0
-10 -4 -10 -10z"/>
<path d="M930 1030 c13 -24 26 -26 34 -4 3 9 6 17 6 18 0 1 -11 3 -25 4 -23 2
-24 0 -15 -18z"/>
<path d="M1525 1040 c-3 -6 1 -13 9 -16 9 -3 13 -10 10 -16 -3 -5 -11 -4 -19
2 -9 8 -7 -2 5 -27 16 -32 16 -39 4 -41 -8 -2 -26 3 -39 12 -31 20 -41 20 -25
1 10 -13 9 -15 -9 -15 -48 0 -122 -60 -119 -96 2 -18 7 -23 20 -18 13 4 21 -1
26 -17 l9 -23 5 22 c4 14 14 22 27 22 12 0 28 12 38 28 10 15 22 30 27 33 5 4
6 17 3 29 -4 15 -3 20 4 13 17 -17 58 -2 94 35 19 20 35 40 35 44 0 4 -14 8
-30 8 -18 0 -33 6 -36 15 -7 17 -30 20 -39 5z m-85 -161 c0 -11 -4 -18 -10
-14 -5 3 -7 12 -3 20 7 21 13 19 13 -6z"/>
<path d="M525 1019 c-10 -15 3 -25 16 -12 7 7 7 13 1 17 -6 3 -14 1 -17 -5z"/>
<path d="M836 1013 c-6 -14 -5 -15 5 -6 7 7 10 15 7 18 -3 3 -9 -2 -12 -12z"/>
<path d="M1040 978 c0 -21 6 -38 14 -41 17 -7 14 49 -3 66 -8 8 -11 1 -11 -25z"/>
<path d="M865 990 c-3 -5 -1 -10 4 -10 6 0 11 5 11 10 0 6 -2 10 -4 10 -3 0
-8 -4 -11 -10z"/>
<path d="M1082 978 c1 -15 8 -30 15 -32 16 -7 16 -5 -2 30 l-15 29 2 -27z"/>
<path d="M1676 974 c-5 -12 -2 -15 10 -10 8 3 23 2 33 -3 12 -7 24 -4 41 9
l25 19 -29 -5 c-16 -3 -33 -7 -37 -10 -4 -2 -10 0 -14 6 -9 15 -22 12 -29 -6z"/>
<path d="M1122 943 c2 -10 14 -19 26 -21 21 -3 22 -1 12 17 -13 26 -43 28 -38
4z"/>
<path d="M937 928 c-25 -18 -28 -18 -33 -3 -5 12 -9 13 -14 4 -10 -15 10 -38
27 -32 7 3 10 -3 6 -16 -3 -12 -12 -21 -19 -21 -23 0 -29 -31 -9 -46 9 -7 15
-20 12 -28 -3 -8 -3 -17 1 -21 4 -3 12 9 18 27 l12 33 1 -32 c1 -18 6 -33 11
-33 6 0 10 6 9 13 -3 18 22 77 32 77 12 0 11 -17 -1 -25 -5 -3 -10 -16 -10
-28 0 -13 3 -17 8 -11 4 7 15 8 27 4 15 -5 23 -1 33 19 11 24 12 24 8 3 -3
-18 2 -25 20 -33 33 -12 34 -12 34 5 0 8 4 18 10 21 5 3 7 0 5 -8 -6 -15 38
-43 53 -33 5 3 10 0 9 -7 -1 -35 4 -57 14 -57 6 0 8 7 5 17 -6 14 -4 14 14 -2
22 -19 22 -19 36 0 16 22 18 41 4 50 -15 9 -12 35 4 35 8 0 22 10 30 22 9 12
16 17 16 10 0 -7 4 -11 9 -7 6 3 8 15 6 27 -3 12 0 27 6 35 9 10 6 11 -20 2
-17 -6 -31 -15 -31 -21 0 -5 -4 -6 -10 -3 -5 3 -10 1 -10 -6 0 -7 -3 -9 -7 -6
-3 4 -14 0 -24 -9 -15 -14 -16 -18 -1 -46 20 -40 26 -91 10 -86 -14 5 -36 63
-37 100 -1 14 9 44 20 66 21 39 21 72 -1 72 -5 0 -9 -3 -8 -7 10 -37 -65 -92
-79 -58 -8 22 -22 18 -33 -7 -5 -13 -9 -17 -9 -10 -1 6 -5 12 -11 12 -5 0 -7
-6 -4 -14 3 -8 1 -17 -5 -20 -5 -4 -13 4 -17 16 -6 21 -7 21 -20 3 -13 -18
-14 -18 -14 3 0 15 -5 20 -15 16 -17 -7 -20 7 -4 23 7 7 3 15 -13 25 -22 14
-26 14 -51 -4z m193 -76 c0 -4 -9 -13 -20 -20 -17 -10 -20 -10 -20 4 0 8 4 13
9 9 5 -3 12 -1 16 5 7 12 15 13 15 2z"/>
<path d="M1672 937 c-8 -10 -1 -12 33 -12 25 1 48 5 52 10 5 4 -7 5 -25 2 -21
-4 -31 -3 -27 3 9 15 -21 12 -33 -3z"/>
<path d="M1930 942 c0 -5 -10 -13 -22 -17 -13 -4 -26 -8 -30 -10 -5 -1 -12 -3
-18 -4 -16 -2 -12 -21 5 -21 19 0 85 32 85 41 0 4 -4 11 -10 14 -5 3 -10 2
-10 -3z"/>
<path d="M1965 920 c4 -6 11 -8 16 -5 14 9 11 15 -7 15 -8 0 -12 -5 -9 -10z"/>
<path d="M557 913 c-4 -3 -2 -12 4 -20 14 -16 65 -17 75 -1 5 8 2 9 -10 5 -9
-4 -27 0 -40 8 -12 8 -26 12 -29 8z"/>
<path d="M1060 910 c0 -5 5 -10 11 -10 5 0 7 5 4 10 -3 6 -8 10 -11 10 -2 0
-4 -4 -4 -10z"/>
<path d="M1570 901 c0 -6 -22 -34 -49 -62 -27 -28 -48 -57 -47 -65 3 -17 16
-31 16 -16 0 7 9 12 20 12 13 0 20 7 20 20 0 14 5 18 18 13 14 -6 15 -4 4 9
-11 14 -9 20 13 42 27 27 31 41 15 51 -5 3 -10 1 -10 -4z"/>
<path d="M1780 900 c0 -5 5 -10 11 -10 5 0 7 5 4 10 -3 6 -8 10 -11 10 -2 0
-4 -4 -4 -10z"/>
<path d="M1918 894 c-30 -16 -35 -24 -15 -24 14 1 52 28 46 34 -2 2 -16 -2
-31 -10z"/>
<path d="M723 893 c-7 -2 -13 -9 -13 -14 0 -6 7 -6 18 0 13 7 23 6 32 -2 10
-9 12 -9 8 3 -5 16 -25 22 -45 13z"/>
<path d="M1650 869 c0 -5 1 -10 2 -11 1 -2 -4 -14 -11 -28 -11 -23 -11 -23 3
-6 14 17 16 17 38 2 12 -9 27 -16 33 -16 5 0 -7 11 -29 24 -36 23 -37 25 -15
28 l24 3 -22 7 c-13 3 -23 2 -23 -3z"/>
<path d="M476 862 c-2 -4 1 -15 8 -24 11 -16 15 -16 32 -3 16 13 17 16 4 25
-18 12 -37 13 -44 2z"/>
<path d="M1780 849 l-25 -20 25 7 c14 4 27 10 30 14 3 4 14 10 25 13 17 4 16
5 -5 6 -14 0 -36 -9 -50 -20z"/>
<path d="M1600 856 c0 -2 8 -10 18 -17 15 -13 16 -12 3 4 -13 16 -21 21 -21
13z"/>
<path d="M1715 850 c3 -5 8 -10 11 -10 2 0 4 5 4 10 0 6 -5 10 -11 10 -5 0 -7
-4 -4 -10z"/>
<path d="M1877 853 c-15 -14 -5 -18 51 -21 38 -1 52 1 42 7 -8 5 -17 8 -21 5
-4 -2 -10 0 -14 6 -7 11 -48 14 -58 3z"/>
<path d="M530 828 c-20 -7 -22 -11 -10 -18 22 -14 37 -12 43 5 8 20 -3 24 -33
13z"/>
<path d="M1580 826 c0 -18 30 -49 39 -41 3 4 -1 12 -10 18 -9 7 -14 18 -12 25
3 6 0 12 -6 12 -6 0 -11 -6 -11 -14z"/>
<path d="M585 820 c-3 -5 -1 -10 4 -10 6 0 11 5 11 10 0 6 -2 10 -4 10 -3 0
-8 -4 -11 -10z"/>
<path d="M640 814 l-25 -13 27 -1 c15 0 29 4 33 9 10 17 -10 20 -35 5z"/>
<path d="M1740 800 c0 -5 5 -10 11 -10 5 0 7 5 4 10 -3 6 -8 10 -11 10 -2 0
-4 -4 -4 -10z"/>
<path d="M1825 799 c-11 -17 1 -21 15 -4 8 9 8 15 2 15 -6 0 -14 -5 -17 -11z"/>
<path d="M1327 777 c-26 -13 -36 -24 -32 -35 3 -8 -3 -24 -12 -36 -13 -15 -14
-17 -2 -8 9 6 18 9 22 6 6 -6 32 37 28 46 -1 2 2 6 8 8 15 5 14 -35 -1 -48
-59 -49 -62 -53 -44 -46 36 13 74 52 79 81 8 48 -3 55 -46 32z"/>
<path d="M1770 796 c0 -2 7 -6 15 -10 8 -3 15 -1 15 4 0 6 -7 10 -15 10 -8 0
-15 -2 -15 -4z"/>
<path d="M410 774 c0 -8 5 -12 10 -9 6 4 8 11 5 16 -9 14 -15 11 -15 -7z"/>
<path d="M605 780 c-4 -6 -10 -8 -15 -5 -5 3 -11 1 -14 -4 -4 -5 -2 -12 3 -15
5 -4 12 -2 16 3 3 6 12 8 20 4 8 -3 15 0 15 5 0 16 -18 24 -25 12z"/>
<path d="M1428 782 c-24 -5 -23 -22 1 -22 11 0 22 -6 24 -12 4 -9 6 -8 6 2 1
23 -12 36 -31 32z"/>
<path d="M1695 770 c-3 -5 1 -10 10 -10 9 0 13 5 10 10 -3 6 -8 10 -10 10 -2
0 -7 -4 -10 -10z"/>
<path d="M1387 764 c-11 -11 -8 -44 3 -44 15 0 24 30 13 41 -5 5 -12 6 -16 3z"/>
<path d="M1630 750 c0 -9 39 -25 45 -18 2 2 -7 8 -21 15 -13 6 -24 7 -24 3z"/>
<path d="M1082 702 c-11 -33 -12 -33 -37 -16 -25 17 -30 12 -26 -23 1 -7 -3
-13 -10 -13 -7 0 -9 9 -4 28 5 21 4 24 -6 15 -9 -9 -17 -8 -36 4 -22 15 -25
14 -38 -3 -12 -16 -12 -19 1 -22 8 -2 22 2 31 10 14 11 16 11 11 -3 -6 -14 15
-35 36 -37 5 0 12 -5 15 -11 4 -5 29 -20 56 -32 28 -13 54 -25 59 -27 5 -3 6
0 2 6 -4 6 -1 20 5 31 12 18 14 18 37 3 24 -16 24 -15 17 7 -4 15 -3 21 3 17
5 -3 12 3 15 14 3 11 1 20 -4 20 -5 0 -9 -5 -9 -11 0 -7 -10 -5 -25 5 -17 11
-31 14 -43 8 -21 -12 -42 -5 -42 14 0 8 7 11 18 8 10 -4 13 -3 6 3 -6 4 -13
15 -16 23 -3 9 -9 2 -16 -18z"/>
<path d="M1721 721 c-11 -7 -9 -10 8 -16 13 -4 25 -4 28 -1 4 3 0 6 -8 6 -11
0 -11 2 1 10 13 9 13 10 0 10 -8 0 -21 -4 -29 -9z"/>
<path d="M1810 711 c-73 -39 -78 -41 -83 -29 -3 8 -6 6 -6 -4 -1 -22 9 -23 35
-3 10 8 31 15 45 15 16 0 26 6 26 15 0 8 -1 15 -1 14 -1 0 -8 -4 -16 -8z"/>
<path d="M880 700 c0 -5 5 -10 11 -10 5 0 7 5 4 10 -3 6 -8 10 -11 10 -2 0 -4
-4 -4 -10z"/>
<path d="M1865 680 c3 -5 8 -10 11 -10 2 0 4 5 4 10 0 6 -5 10 -11 10 -5 0 -7
-4 -4 -10z"/>
<path d="M1780 670 c0 -5 4 -10 9 -10 6 0 13 5 16 10 3 6 -1 10 -9 10 -9 0
-16 -4 -16 -10z"/>
<path d="M1407 653 c-13 -12 -7 -23 11 -22 10 0 12 3 4 6 -6 2 -10 9 -6 14 6
10 0 12 -9 2z"/>
<path d="M1510 650 c0 -5 5 -10 11 -10 5 0 7 5 4 10 -3 6 -8 10 -11 10 -2 0
-4 -4 -4 -10z"/>
<path d="M1305 610 c3 -5 8 -10 11 -10 2 0 4 5 4 10 0 6 -5 10 -11 10 -5 0 -7
-4 -4 -10z"/>
<path d="M1476 611 c10 -10 72 -26 63 -17 -4 4 -21 11 -39 16 -19 5 -29 6 -24
1z"/>
<path d="M1615 610 c4 -6 11 -8 16 -5 14 9 11 15 -7 15 -8 0 -12 -5 -9 -10z"/>
<path d="M1864 608 c-4 -6 -3 -8 3 -5 6 4 14 0 17 -9 5 -13 9 -14 21 -4 8 7
12 16 9 21 -8 13 -42 11 -50 -3z"/>
<path d="M660 596 c0 -9 7 -16 16 -16 17 0 14 22 -4 28 -7 2 -12 -3 -12 -12z"/>
<path d="M1370 590 c6 -11 16 -20 22 -20 6 0 3 9 -7 20 -10 11 -20 20 -22 20
-2 0 1 -9 7 -20z"/>
<path d="M1295 580 c3 -5 8 -10 11 -10 2 0 4 5 4 10 0 6 -5 10 -11 10 -5 0 -7
-4 -4 -10z"/>
<path d="M1624 575 c8 -8 20 -15 27 -15 9 0 8 4 -1 15 -7 8 -19 15 -27 15 -12
0 -12 -2 1 -15z"/>
<path d="M1954 583 c4 -8 1 -13 -6 -13 -8 0 -6 -5 5 -11 9 -5 17 -18 17 -27
-1 -15 -2 -15 -15 2 -13 18 -20 15 -16 -6 0 -5 -7 -8 -16 -9 -14 0 -13 -3 5
-11 17 -9 26 -8 41 6 11 10 25 15 30 11 21 -12 11 6 -20 38 -17 18 -28 26 -25
20z"/>
<path d="M1246 571 c-3 -5 3 -11 15 -14 16 -4 18 -3 8 9 -13 16 -16 17 -23 5z"/>
<path d="M1320 575 c0 -2 14 -10 31 -19 23 -12 28 -12 20 -2 -11 12 -51 29
-51 21z"/>
<path d="M1130 549 c0 -16 27 -46 35 -38 2 2 -5 15 -15 29 -15 19 -20 21 -20
9z"/>
<path d="M1610 548 c14 -7 41 -21 60 -32 30 -17 33 -18 21 -2 -8 9 -30 24 -49
32 -40 16 -69 18 -32 2z"/>
<path d="M1892 515 c0 -16 2 -22 5 -12 2 9 2 23 0 30 -3 6 -5 -1 -5 -18z"/>
<path d="M1600 517 c0 -10 8 -17 18 -17 9 0 13 4 7 8 -5 4 -13 11 -17 16 -5 5
-8 2 -8 -7z"/>
<path d="M1730 500 c0 -5 5 -10 11 -10 5 0 7 5 4 10 -3 6 -8 10 -11 10 -2 0
-4 -4 -4 -10z"/>
<path d="M1790 488 c0 -20 40 -57 40 -37 1 11 3 11 13 -2 7 -8 23 -18 35 -22
21 -5 23 -3 18 19 -5 20 -3 24 11 22 10 -2 23 -10 30 -18 6 -8 15 -12 19 -7 4
4 2 7 -4 7 -7 0 -12 7 -12 15 0 12 -10 14 -50 10 -36 -4 -57 -1 -75 11 -21 14
-25 14 -25 2z"/>
<path d="M1282 470 c0 -14 2 -19 5 -12 2 6 2 18 0 25 -3 6 -5 1 -5 -13z"/>
<path d="M2016 465 c-16 -24 -16 -25 8 -25 24 0 41 23 30 41 -9 15 -21 10 -38
-16z"/>
<path d="M2490 469 c9 -15 15 -18 24 -10 7 6 16 9 20 6 3 -3 2 0 -4 7 -5 6
-19 13 -30 15 -18 3 -19 0 -10 -18z"/>
<path d="M1769 462 c7 -13 23 -28 36 -34 12 -5 28 -21 34 -34 14 -31 35 -32
25 -1 -9 31 -24 48 -36 41 -5 -3 -23 7 -40 22 -27 26 -29 26 -19 6z"/>
<path d="M2095 472 c-11 -11 -4 -20 20 -24 14 -3 25 -1 25 3 0 5 0 12 0 17 0
8 -37 12 -45 4z"/>
<path d="M1481 454 c5 -7 19 -12 29 -11 25 2 16 13 -15 19 -20 4 -23 2 -14 -8z"/>
<path d="M2163 453 c-3 -8 -3 -17 1 -20 3 -4 6 2 6 11 0 16 2 15 18 -4 17 -21
18 -21 35 -2 18 19 17 20 -19 24 -24 3 -38 0 -41 -9z"/>
<path d="M1603 447 c0 -8 6 -14 14 -14 7 0 12 5 10 11 -5 15 -24 18 -24 3z"/>
<path d="M1640 446 c0 -2 9 -6 20 -9 11 -3 18 -1 14 4 -5 9 -34 13 -34 5z"/>
<path d="M1220 415 c7 -9 15 -13 17 -11 7 7 -7 26 -19 26 -6 0 -6 -6 2 -15z"/>
<path d="M1965 421 c-3 -5 -19 -9 -35 -9 -31 1 -48 -7 -37 -18 4 -4 13 -2 20
4 10 8 17 8 24 1 8 -8 13 -8 17 0 4 6 15 11 24 11 13 0 13 -2 -4 -15 -19 -14
-19 -14 2 -15 29 0 38 27 14 40 -11 6 -21 6 -25 1z"/>
<path d="M2015 401 c-10 -9 7 -20 22 -14 10 4 14 2 10 -4 -11 -18 21 -23 38
-7 22 22 19 27 -11 20 -14 -4 -23 -3 -21 1 6 9 -30 12 -38 4z"/>
<path d="M2228 403 c6 -2 18 -2 25 0 6 3 1 5 -13 5 -14 0 -19 -2 -12 -5z"/>
<path d="M2425 399 c-11 -17 1 -21 15 -4 8 9 8 15 2 15 -6 0 -14 -5 -17 -11z"/>
<path d="M2170 391 c0 -5 7 -11 14 -14 10 -4 13 -1 9 9 -6 15 -23 19 -23 5z"/>
<path d="M1326 378 c3 -5 10 -6 15 -3 13 9 11 12 -6 12 -8 0 -12 -4 -9 -9z"/>
<path d="M2437 376 c-4 -11 1 -14 19 -12 13 2 27 6 32 11 4 4 2 5 -5 1 -6 -3
-14 -2 -18 4 -9 14 -22 12 -28 -4z"/>
<path d="M1885 370 c3 -5 8 -10 11 -10 2 0 4 5 4 10 0 6 -5 10 -11 10 -5 0 -7
-4 -4 -10z"/>
<path d="M1617 337 c-2 -17 0 -40 5 -49 6 -13 5 -18 -6 -18 -10 0 -13 -6 -9
-16 5 -13 7 -13 14 -2 7 10 9 9 9 -4 0 -10 5 -18 11 -18 5 0 8 4 4 9 -3 5 4
13 15 16 16 5 19 10 10 20 -6 7 -10 19 -9 27 5 38 -15 55 -24 21 -2 -10 -3 -5
-2 10 3 40 -12 43 -18 4z"/>
<path d="M1650 366 c0 -2 7 -9 15 -16 9 -7 15 -8 15 -2 0 5 -7 12 -15 16 -8 3
-15 4 -15 2z"/>
<path d="M2007 364 c-8 -8 1 -24 14 -24 5 0 9 7 9 15 0 15 -12 20 -23 9z"/>
<path d="M1335 350 c3 -5 8 -10 11 -10 2 0 4 5 4 10 0 6 -5 10 -11 10 -5 0 -7
-4 -4 -10z"/>
<path d="M2055 350 c-19 -8 -19 -9 3 -9 12 -1 22 4 22 9 0 6 -1 10 -2 9 -2 0
-12 -4 -23 -9z"/>
<path d="M1477 314 c-15 -15 -24 -31 -20 -38 4 -6 8 -17 10 -25 2 -19 23 -31
55 -31 14 0 35 -2 45 -5 10 -3 4 1 -14 10 -28 13 -31 18 -24 42 9 37 3 73 -13
73 -7 0 -25 -12 -39 -26z"/>
<path d="M1687 317 c-10 -12 -13 -23 -7 -25 5 -2 10 -10 10 -18 0 -19 13 -18
44 7 18 14 26 16 26 7 0 -10 3 -9 10 2 9 13 10 13 10 0 0 -13 2 -13 9 0 12 18
4 33 -12 23 -7 -4 -18 -8 -26 -10 -8 -1 -18 -7 -22 -15 -8 -13 -14 -4 -21 34
-3 15 -5 15 -21 -5z"/>
<path d="M1930 330 c0 -5 5 -10 11 -10 5 0 7 5 4 10 -3 6 -8 10 -11 10 -2 0
-4 -4 -4 -10z"/>
<path d="M1982 318 c2 -7 13 -20 26 -29 12 -8 19 -19 15 -22 -11 -11 51 -8 67
4 11 8 7 9 -18 5 -23 -4 -34 -1 -38 9 -8 19 -55 50 -52 33z"/>
<path d="M2046 321 c-4 -5 -2 -12 3 -15 5 -4 12 -2 15 3 4 5 2 12 -3 15 -5 4
-12 2 -15 -3z"/>
<path d="M1745 259 c-16 -8 -15 -8 8 -4 15 3 36 1 47 -5 16 -9 18 -8 14 5 -7
17 -38 19 -69 4z"/>
<path d="M2045 240 c3 -5 12 -7 20 -3 21 7 19 13 -6 13 -11 0 -18 -4 -14 -10z"/>
<path d="M1660 230 c0 -5 4 -10 9 -10 6 0 13 5 16 10 3 6 -1 10 -9 10 -9 0
-16 -4 -16 -10z"/>
</g>
</svg>
