<svg xmlns="http://www.w3.org/2000/svg" viewBox="0 0 58 64"><title>sputnik</title><path d="M58,6.08392A6.07757,6.07757,0,0,0,47.40024,2.01721L0,27.37517l0.48224,0.89219L46.29082,3.76891A6.04622,6.04622,0,0,0,45.8579,5.575L23.72571,25.61109l0.6882,0.74465L45.89646,6.92134a6.07929,6.07929,0,0,0,4.95365,5.14736L24.92487,63.55044,25.83389,64l26.0989-51.833a6.05387,6.05387,0,0,0,3.3649-1.02606l-12.6325,35.656,0.96051,0.32677L56.91274,9.55A6.05151,6.05151,0,0,0,58,6.08392Z" style="fill:#fefded"/></svg>