<svg class="asteroid ida" xmlns="http://www.w3.org/2000/svg" viewBox="0 0 413.70805 300"><title>ida</title><path d="M263.60769,250.643c2.9224,0.916,5.41015,3.2208,9.35342,2.64092a11.37633,11.37633,0,0,0-1.39155-2.42461c-0.62736-.60706-1.87863-0.78186-2.19974-1.45757-1.81771-3.82511-5.12668-4.69826-8.90238-4.6719v-2.79834H255.699l0.5738,4.0712c-2.75225-.71066-4.32957-2.77629-4.35829-4.34519-0.03266-1.78455-.86284-2.0199-1.81721-2.71571a11.18146,11.18146,0,0,1-3.13527-2.71624,3.07277,3.07277,0,0,1,.54837-2.89621c0.83718-.8007,1.90917-0.33925,2.56087.86609,1.17855,2.17977,3.13467,3.38183,6.04017,4.13411,0-1.12612.27127-2.15968-.05893-2.93812-0.60693-1.43091-1.018-3.17891-3.00849-3.50553-3.28957-.53978-4.90307-2.46042-5.29379-5.8143-0.17224-1.47823-1.264-2.84931-1.99927-4.39758l1.54545-1.65654c2.27528,2.30675,1.68957,5.50712,3.25472,8.27071,1.75978,0.84636,3.81735,1.836,6.19623,2.98011,0.211-1.17417.31942-1.77752,0.4456-2.47956h6.49578c-3.20441,1.07349-4.86391,2.14333-4.57808,5.0197,3.16286,0.07,5.715-.70071,6.92413-3.88244,2.94008-.37463,4.31329,4.17546,8.22412,2.109-1.50121-1.66148-2.77705-3.07356-3.73789-4.137-2.01078,0-3.50264.04036-4.98047-.08526a13.26421,13.26421,0,0,1-.1808-2.20461c1.80464-.19914,3.35145-0.36986,5.05728-0.55808-0.10841-3.42607-2.647-5.26086-4.00687-7.66335-1.31355-2.32071-2.667-5.12579-4.791-6.34393-2.30576-1.32244-5.26248-1.55474-7.29913-3.99921,0.71391-.85051,1.35543-1.61479,2.10911-2.51265a5.01452,5.01452,0,0,0-1.318-.84271c-4.1816-.94963-4.18508-0.93427-6.724-4.01108l-3.06868,1.91235q-2.02529-3.2514-3.98691-6.4007c-1.86845.5686-2.35945,1.37788-1.70144,2.91418,0.83635,1.95268,1.512,3.97424,2.4,6.34864,4.06318,0.99393,5.61582,5.267,8.54456,8.07655a2.08756,2.08756,0,0,1-.52227,3.30261c-0.77639.47657-2.45993,0.76117-2.8724,0.32131-1.75285-1.86931-3.82236-1.6719-6.05433-2.04835-2.17868-.3675-4.05529-2.52585-6.69455-4.32834l4.75358,0.25495c-1.05906-2.65187-.68092-5.13229-3.39655-6.68437-1.11643-.63807-1.63844-2.65213-2.02564-4.14539a19.24435,19.24435,0,0,1-.7221-5.801c0.08125-1.44974.96717-2.85446,1.58388-4.51926-2.90652-.232-4.80123-3.89306-8.26308-2.11574-2.81635-3.53179-8.86126-3.594-9.693-9.41725a6.84657,6.84657,0,0,0-4.78793-5.40243,4.56913,4.56913,0,0,1-2.70068-2.46686c-0.73892-2.99616-3.46487-2.51418-5.89422-3.34635,0.39745,1.1427.79486,2.28539,1.16385,3.34621-1.12018.89186-2.5623,2.04009-4.23124,3.3689-0.64626-4.50937,1.00978-9.51774-4.504-12.44375-3.42189-1.81592-6.30261-1.40242-9.73312-.00938a10.66649,10.66649,0,0,1,2.09425.931c1.81638,1.32061,4.84381,1.80279,3.83734,5.21254,1.52045,1.90741,3.04089,3.81479,4.65287,5.837-4.04262,3.86719-8.173.75978-11.23689-.93514-3.84915-2.12933-3.32234-6.66341-1.31978-11.22677-2.359,2.26321-2.359,2.26321-2.87628,6.08742-2.24364.08894-4.24126,0.92373-4.66324,4.02133-4.27137-2.599-7.98449-1.19662-11.89038.33756-2.72007-4.038-6.96093-3.29561-10.99394-3.45986,1.04227,2.46062,2.50546,4.12483,5.20876,3.17211,1.30867-.46122,1.96468.03373,2.77682,0.86052,0.93805,0.955,2.0231,1.76555,3.09515,2.68231l-1.82008,2.87405c4.21544,2.36747,4.93615,7.54386,8.94123,10.25586,1.22792,0.8315,1.4639,3.12788,2.26258,5.00879-1.37,1.2189-2.67074,2.37629-4.05383,3.6069,0.786,0.904,1.60713,1.84842,2.49975,2.87508-1.31623.98034-2.55722,1.90466-3.85761,2.87319-1.22285-.58524-2.33623-1.15447-3.47919-1.65628-1.57758-.69256-3.1885-0.8835-4.55253.39516-1.93341,1.8124-3.87278,1.50264-5.936.29945a6.96052,6.96052,0,0,0-2.464-1.067c-1.82328-.22689-3.60032-0.22772-4.41058-2.39039-0.86233-2.30158-2.60392-4.22033-1.84756-7.09575,0.86989-3.307.2589-3.89859-3.36367-4.893a5.93426,5.93426,0,0,1-1.16694-.72937l1.97778-2.48579c-1.529-1.63678-3.06961-3.318-4.66222-4.94847a3.79714,3.79714,0,0,0-1.46686-.20468c0.35211,2.7876,3.99612,5.82335-.54694,8.41662-0.46611-1.09909-1.008-2.13-1.34986-3.22348-2.08146-6.65744-2.06631-6.66219-8.45383-8.444l-1.42177,1.98014a35.64711,35.64711,0,0,0-4.24968-2.07833,2.23,2.23,0,0,0-1.47128,1.12386,1.55878,1.55878,0,0,0,.30609,1.41509c6.04587,1.72,7.46625,8.45244,13.51228,11.26547-1.80645,1.14412-2.7744,2.26583-3.72264,2.24935-1.84419-.0319-3.67735-0.70224-6.30032-1.28158-1.60581.67412,0.02747,2.607,0.43912,4.44033-1.20254,0-2.34114.22683-2.46707-.03446-1.57089-3.25936-4.46837-3.18057-7.69369-3.01711-1.07389-2.80521-2.085-5.885-6.65408-5.70377,2.78536-3.58641.77811-6.07117-.54578-8.802-1.83935-3.794-3.61658-7.39357-8.57981-7.72519a5.39694,5.39694,0,0,1-3.43378-1.31919c-1.56138-1.763-3.22781-.66288-4.94249-0.57145-0.49269-1.96624-.95924-3.82826-1.41343-5.64086,3.50488-2.49836,3.50488-2.49836,11.12621,4.41307a23.924,23.924,0,0,0,1.56276-3.69369c0.81822-3.40319-1.71882-5.82276-5.32523-5.1368-2.79553.53175-5.58129,1.26759-8.41758-.80358,1.7489-4.12977,5.81556-4.65754,9.63685-6.45262-1.27687-1.19158-2.22681-2.078-3.30009-3.07959a15.69957,15.69957,0,0,0-2.04071-9.08242c-1.138-2.06306-1.08844-4.78115-1.70639-7.897l4.8526,1.0714-2.96314,1.2066c-0.49957,3.54767,2.26016,1.50332,3.60231,2.16687-0.47849.73044-.94271,1.4391-1.4069,2.148,2.49229,1.64772,2.92577,1.31484,3.63073-3.03078h4.35119c-1.24707-2.72088-3.70693-1.29826-4.50737-1.6738-2.51479-3.394-3.97755-7.00477-6.63879-8.54582a29.44059,29.44059,0,0,1-8.46456-7.03125c-1.55913-1.942-3.73272-1.28316-5.56922-1.68359-0.55293-2.53578,4.7622-3.56107,1.01119-6.646-0.54842.76007-1.338,1.37477-1.44339,2.09022-0.3187,2.16419-1.38432,3.3105-3.582,3.1712-1.97021-.12487-4.26152.47165-4.66575-2.77568-0.12509-1.00478-1.80823-1.81562-3.24618-3.14956-0.14886,1.30456-.234,1.78019-0.24868,2.258-0.01375.44822,0.04709,0.89872,0.11754,2.029-3.01418-2.51531-4.41087-5.32775-5.7925-7.92408,0.75828-3.28385,4.80549-4.60684,4.162-8.11664a61.88019,61.88019,0,0,0-2.24543-7.25461l-5.60639.30461c2.33172,6.5244,3.68075,12.59109-2.1902,17.88115-5.05825-2.01919-7.76681-5.94164-9.10112-11.0436a1.51242,1.51242,0,0,1-.07529-1.02118c3.53875-3.67931-.4035-4.71869-2.26981-6.47333a6.63148,6.63148,0,0,0-1.05454-.64513,3.62441,3.62441,0,0,0-1.1263.86538c-1.47722,2.65644-2.65034,3.02473-4.00732.869-1.97-3.1296-3.60174-6.47215-5.44023-9.83828-0.82434,1.66269-1.71474,3.55722-4.245,3.39433-2.08314-1.31041-2.0018-3.135-1.13306-5.16271,0.83757-1.955,1.05587-3.78682-1.17528-5.20813-3.1634,2.57327-.3223,6.41369-2.23632,9.29653a6.80751,6.80751,0,0,1-5.44611-5.62894c-0.45844-2.41547-1.4963-3.72791-4.08394-4.2425C9.48929,69.19,7.53082,67.97541,7.50791,65.22956c-0.03485-4.17716-3.16872-7.48044-3.33624-11.71071-0.04448-1.12335-1.6787-2.18377-2.64372-3.3462A42.41219,42.41219,0,0,0,.18174,44.221c-0.89467-2.42945,1.83023-3.92192,1.3445-5.89165-0.45969-1.86419-1.733-3.49337-.43452-5.49628,0.47166-.72756.49627-1.83189,1.08295-2.38326C5.13629,27.66648,7.973,24.64995,11.31045,22.39a115.16553,115.16553,0,0,1,16.19663-9.55468A65.2219,65.2219,0,0,1,48.56545,6.822c8.00085-.75814,15.255,1.75818,22.3461,5.02932,4.57379,2.10988,9.16395,4.18443,13.73313,6.30417,6.45517,2.99471,13.01774,2.99823,19.83363,1.25261,4.65134-1.19125,9.412-2.31061,14.86961-1.36956-0.83626,1.06069-1.50418,1.94407-2.20972,2.79629-2.73623,3.305-3.62995,7.36011-3.91866,11.39718-0.13482,1.885,1.33013,3.8845,1.82187,5.17891,6.0269,3.15941,10.32962,2.42492,13.1575-3.49248l-1.88206-2.85636c2.75119-1.14747,4.2422-4.23889,8.43407-4.73695l-1.76019,2.86457c0.59513,1.1871,1.37486,1.77931,2.33928.41273a4.51486,4.51486,0,0,0,.56024-2.02739c0.60129-5.17066.58975-5.172,5.83832-5.60334,0.89232-2.55295,1.35064-5.51692,2.87-7.76313,1.63789-2.42143,3.51324-4.53924,3.3367-8.14171C152.98987,4.34338,158.03738,2.72784,163.004.89327a11.69925,11.69925,0,0,1,10.28428.62753c3.14015,1.7542,6.3565,3.39623,9.36761,5.352,6.171,4.00817,12.43165,7.92473,18.27646,12.37652,6.71186,5.11221,13.12722,10.63513,19.436,16.24432a31.9,31.9,0,0,0,7.85018,5.62423,71.67668,71.67668,0,0,1,14.3505,8.52647c3.37576,2.61347,7.69054,3.989,11.18691,6.478,4.67624,3.32894,9.04577,7.10891,13.39119,10.875,2.72094,2.35817,5.19251,4.89256,8.48673,6.62135,3.15082,1.65357,5.78923,4.25449,8.83277,6.15013a54.84382,54.84382,0,0,0,8.9897,4.71395c9.69585,3.76678,19.66243,6.88571,29.18236,11.039a109.25361,109.25361,0,0,1,17.9851,9.67615c5.74894,3.91733,12.2407,6.75449,18.4484,9.9853,4.15859,2.16435,8.39056,4.18767,12.58781,6.27784,7.63453,3.80188,13.83062,8.977,17.12219,17.17513,2.47621,6.16744,5.21718,12.22979,7.909,18.30849A10.38018,10.38018,0,0,0,398.887,160.522c5.75481,5.14184,7.647,12.0025,8.65884,19.20529a65.14942,65.14942,0,0,1,1.01008,12.854c-0.49829,8.21762-.50675,16.47367-1.9,24.6498-0.823,4.82969.34492,9.63115,1.86712,14.284,1.61227,4.92824,3.081,9.9049,4.77331,14.80489,1.01552,2.94031.0654,5.24129-1.89713,7.26583a41.2142,41.2142,0,0,1-5.5568,5.16131c-5.07711,3.58661-8.5238,8.61042-12.37544,13.30089-4.555,5.547-9.1892,11.02939-13.83424,16.50146a19.984,19.984,0,0,1-2.45933,2.10191l-8.37756-4.16824h5.75079a5.67229,5.67229,0,0,1,1.62126-1.93713c3.03821-1.5418,4.43522-4.60647,6.71355-6.83582a9.54615,9.54615,0,0,0,1.7222-2.07495c0.599-1.07571,1.05571-2.1289.20643-3.48613-0.90546-1.44689-2.13116-1.35308-3.29355-1.04228a18.58457,18.58457,0,0,0-8.41341,4.5614c-2.16694,2.13922-4.05041,4.56376-6.089,6.83539-0.96445,1.07468-2.00872,2.0773-3.0007,3.12781-1.04414,1.10562-2.069,2.22948-3.41775,3.68613h-6.666c0.04762-1.774-1.10042-3.3557,1.08659-5.0004,1.73146-1.30214,2.24162-3.73026.05415-6.007,1.69126-.7812,2.9102-1.47863,4.21605-1.91773,2.3035-.77457,3.75673-1.7619,2.83777-4.65416-0.22278-.70114,1.10788-1.97314,1.84908-2.88069,0.68659-.84072,1.54018-1.54505,2.93643-2.91322-8.67695.51023-15.56712,2.90443-21.55867,7.86424-0.83184-.94873-1.60826-1.83423-2.57258-2.934-2.878,1.67047-5.75905,2.62172-9.07343,1.25044-1.51415-.62646-3.17669.08566-4.355,1.48639-1.04673,1.24441-2.19131,2.40654-3.09047,3.38495-5.52284.29488-10.57219-.027-15.78884,0.92645-6.69206,1.22315-13.81968,1.60222-20.60354-.6267-3.05061-1.00229-6.01407-2.26752-9.02979-3.37891-1.83578-.67654-3.74021-1.18379-5.53381-1.95351-2.2788-.978-4.47658-2.14485-6.82107-3.2846,0.549-2.69017,1.287-4.01075,4.12237-4.33938,6.86421-.79562,7.20259-1.20116,11.093-5.48779-3.55218-2.32257-7.87568.45369-11.3049-1.8839C269.43012,254.94825,265.61973,254.13346,263.60769,250.643ZM164.8628,186.66335c-8.21125-2.7624-11.748-2.27826-13.75972,2.06029,3.12943,1.53288,5.32859,5.33444,9.60021,3.41874,1.82612,1.65727,3.49369,3.17069,5.35736,4.86205,0.57321-.93394,1.33975-1.6196,1.22431-2.08782C166.6255,192.24187,165.75606,189.61882,164.8628,186.66335ZM118.06169,112.31c-1.6039,4.00453.34833,6.30405,2.28082,8.35691a14.77522,14.77522,0,0,0,4.54787,2.78329c0.86868,0.40912,2.33549.79615,2.87477,0.36687,0.82787-.659,1.76258-2.2906,1.46822-3.0517a45.24726,45.24726,0,0,0-3.93592-7.48812,3.47217,3.47217,0,0,0-2.38689-.926C121.32923,112.20852,119.72585,112.31,118.06169,112.31ZM106.537,120.4401c-2.23683,1.80357-3.66384,2.95419-5.3712,4.33086,1.425,2.01736,2.7448,3.88576,4.11526,5.82589l-0.76478,2.828c4.514,3.14915,8.86015,6.18127,13.552,9.45453l1.7456-1.6875c-2.36165-2.10259-4.18934-5.07122-6.34929-5.33672-3.19745-.393-3.95989-1.97211-4.7818-4.31533a3.97861,3.97861,0,0,0-1.48344-1.96886c-1.91912-1.18485-1.83205-2.98218-1.65888-4.78288A39.98853,39.98853,0,0,1,106.537,120.4401Zm50.66741,32.305c-2.56036,5.20873,1.97213,7.95179,3.36,11.55163,0.75976,1.97059,3.85955,2.71126,6.72581,3.44235-0.32844-3.69276-3.09919-4.04779-5.44933-5.10652,0.89712-1.42215,1.62842-2.58143,2.3133-3.66712C159.50752,153.19785,159.50752,153.19785,157.20441,152.74509ZM88.0537,85.03341c0.77156-2.598,4.01345-3.93111,2.99954-6.74637-1.08727-3.019-4.07813-3.87512-7.2171-4.41672C86.65184,77.06552,82.57751,82.264,88.0537,85.03341Z" style="fill:#fefded"/><path d="M234.23386,231.12986c1.34426,1.23721,2.89889,2.24716,3.83635,3.6651,0.739,1.11786.71809,2.73816,1.15019,4.645,0.95891-.67379,1.62391-1.141,2.33418-1.64006a3.52391,3.52391,0,0,1,.78534.4329,48.077,48.077,0,0,0,5.01685,4.69823c4.32357,3.015,8.82462,5.7756,13.36874,8.71369-1.635,2.73122-3.798,1.75762-5.90762,1.785-0.8075-1.91451-.00832-5.00246-2.52091-5.0267-2.40461-.02318-5.03406-3.1941-7.41168.18478,2.161,2.33583,4.28762,4.63446,6.60893,7.14357-2.66218.7494-4.78667,1.34741-7.33916,2.06593-1.85969-1.43144-3.92048-3.1288-6.09551-4.66444-2.8847-2.03661-5.69425-4.40286-9.70354-2.86394-0.768.29474-1.74608,0.04228-3.15832,0.04228l1.90188-3.08344c-0.96959-3.351-4.13948-3.3816-6.8149-4.44378-0.48092.79045-.93577,1.53812-1.797,2.95361-0.60375-1.61658-.88035-2.19811-1.0396-2.81018-0.83989-3.22832-.82961-3.231-4.38962-2.76837,0.72814,1.39811,1.40733,2.70221,2.18916,4.20332-3.77079,1.53878-4.69942-3.1174-7.55905-2.74635-0.0653-1.659-1.5939-3.45044.48592-4.94831q1.23447,1.91113,2.46649,3.81844l0.778-.24576a7.12753,7.12753,0,0,0-.23031-2.02315,27.94522,27.94522,0,0,0-1.75931-3.03721c2.27482-2.586,4.45648-5.066,6.8657-7.80478,2.33112,3.60342,4.52386,6.99294,6.81128,10.52878,2.412-1.5362,1.2316-3.65777,1.03479-5.79958,3.92575-.5234,5.90662,3.407,9.15255,3.55762C236.28417,234.70008,233.02318,232.475,234.23386,231.12986Z" style="fill:#fefded"/><path d="M182.95093,197.92223c1.8642-1.21668,1.356-2.66245.42212-3.6137-2.20786-2.24895-2.03409-4.78-1.59022-7.44514,1.44182-.89183,2.479-0.94956,2.97457.79456,0.69879,2.4593,1.99373,4.10145,5.176,3.76369V186.383l2.25469-.20411c2.43459,5.43844,2.43459,5.43844,1.9166,8.33912,2.73892,2.129,5.34224,4.28225,8.08892,6.2338,1.40677,0.99954,2.94625,2.19493,5.19782.95437,0.14784,2.959.47133,5.42212,3.55454,7.18051,2.481,1.41492,1.78256,4.78127,2.10473,8.46759-4.7632-4.36953-6.68676-9.08351-8.68819-14.12812-1.41075,1.33228-2.1805,2.0592-3.16313,2.98714l4.12333,4.50894c-1.03144.953-1.93139,1.78448-2.92085,2.69873a13.00639,13.00639,0,0,1-5.43983-5.58273C193.94521,202.60417,189.46253,198.88329,182.95093,197.92223Z" style="fill:#fefded"/><path d="M192.97847,217.89993c-1.6712,1.42554-3.09471,2.63976-4.5755,3.90284-5.26746-.764-8.83609-2.9683-12.45536-7.32055a9.75921,9.75921,0,0,0-3.54084-2.157c-2.82985-1.27989-2.82418-1.22222-2.32436-4.325,0.18448-1.14518.193-2.31872,0.28191-3.47936,3.9356-1.25137,5.842-.1674,9.4079,2.60806,4.04746,3.15019,6.84706,7.91087,12.08219,9.55922A3.82038,3.82038,0,0,1,192.97847,217.89993Z" style="fill:#fefded"/><path d="M175.83539,223.66485c-0.19261,3.41771-.19261,3.41771,4.38173,5.94635-1.68125,1.05415-3.239,2.43167-5.05277,3.0198-1.11222.3606-2.76711-.21582-3.91455-0.84928-2.63645-1.45545-5.11156-3.20315-7.85514-4.9624-0.295-3.08775-.60819-6.36575-0.92623-9.69449,3.40531-1.75848,5.66421,1.043,7.29687,2.79609A14.86308,14.86308,0,0,0,175.83539,223.66485Z" style="fill:#fefded"/><path d="M227.51623,200.11258h-8.55269c-2.53205-2.36959-4.63844-4.34081-6.73733-6.30506,2.30857-2.634,3.01983-2.92012,5.50181-1.191C220.88173,194.81358,223.847,197.28117,227.51623,200.11258Z" style="fill:#fefded"/><path d="M343.6486,300a6.73948,6.73948,0,0,1,.208-1.45744,1.632,1.632,0,0,1,.66941-0.81141c5.44192-2.46085,10.89814-4.89017,16.9839-7.60873-0.51365,3.82826-3.37182,5.10025-5.421,6.403A24.42134,24.42134,0,0,1,343.6486,300Z" style="fill:#fefded"/><path d="M204.12363,172.53225c2.46407,2.72492,4.37052,4.8332,6.57474,7.27078-0.55354.73069-1.36518,1.802-2.14217,2.82759C202.91491,179.91,202.688,179.44073,204.12363,172.53225Z" style="fill:#fefded"/><path d="M208.85313,221.61882c-2.9871-.77248-5.59046-1.44573-8.50158-2.19854v-3.33945C203.82013,216.02392,205.94426,217.36891,208.85313,221.61882Z" style="fill:#fefded"/></svg>