<svg xmlns="http://www.w3.org/2000/svg" viewBox="0 0 413.70805 300"><title>ida</title><path d="M263.608 250.643c2.922.916 5.41 3.22 9.353 2.64a11.376 11.376 0 0 0-1.39-2.424c-.628-.608-1.88-.783-2.2-1.458-1.818-3.825-5.127-4.7-8.903-4.672v-2.798H255.7l.573 4.07c-2.752-.71-4.33-2.776-4.358-4.344-.033-1.785-.863-2.02-1.818-2.716a11.18 11.18 0 0 1-3.135-2.716 3.073 3.073 0 0 1 .548-2.897c.838-.8 1.91-.34 2.56.865 1.18 2.18 3.136 3.382 6.04 4.135 0-1.127.273-2.16-.057-2.94-.607-1.43-1.018-3.177-3.01-3.504-3.29-.54-4.902-2.46-5.293-5.814-.172-1.48-1.264-2.85-2-4.398l1.546-1.657c2.276 2.307 1.69 5.508 3.255 8.27 1.76.848 3.818 1.837 6.197 2.98.21-1.173.32-1.776.446-2.478h6.496c-3.206 1.072-4.865 2.142-4.58 5.018 3.164.07 5.716-.7 6.925-3.882 2.94-.375 4.313 4.175 8.224 2.11l-3.74-4.138c-2.01 0-3.502.04-4.98-.085a13.264 13.264 0 0 1-.18-2.205l5.057-.558c-.108-3.426-2.647-5.26-4.007-7.663-1.313-2.32-2.667-5.126-4.79-6.344-2.307-1.323-5.263-1.555-7.3-4l2.11-2.512a5.015 5.015 0 0 0-1.32-.842c-4.18-.95-4.184-.934-6.723-4.01l-3.07 1.91-3.985-6.4c-1.87.57-2.36 1.38-1.702 2.915.836 1.953 1.512 3.974 2.4 6.35 4.063.993 5.616 5.266 8.545 8.075a2.088 2.088 0 0 1-.523 3.303c-.776.477-2.46.762-2.872.322-1.753-1.87-3.822-1.672-6.054-2.048-2.18-.368-4.056-2.526-6.695-4.33l4.755.256c-1.06-2.652-.68-5.132-3.397-6.684-1.116-.638-1.638-2.652-2.025-4.145a19.244 19.244 0 0 1-.723-5.8c.082-1.45.968-2.855 1.584-4.52-2.906-.232-4.8-3.893-8.263-2.115-2.815-3.532-8.86-3.594-9.692-9.418a6.847 6.847 0 0 0-4.788-5.402 4.57 4.57 0 0 1-2.7-2.467c-.74-2.996-3.465-2.514-5.895-3.346l1.164 3.346-4.232 3.37c-.646-4.51 1.01-9.52-4.504-12.445-3.422-1.816-6.303-1.402-9.733-.01a10.666 10.666 0 0 1 2.095.932c1.817 1.32 4.844 1.802 3.837 5.212l4.653 5.837c-4.042 3.867-8.173.76-11.237-.935-3.85-2.13-3.322-6.664-1.32-11.228-2.358 2.263-2.358 2.263-2.876 6.088-2.243.09-4.24.923-4.663 4.02-4.272-2.598-7.985-1.196-11.89.34-2.72-4.04-6.962-3.297-10.995-3.46 1.042 2.46 2.505 4.124 5.21 3.17 1.307-.46 1.963.035 2.775.86.938.956 2.024 1.767 3.096 2.684l-1.82 2.874c4.215 2.367 4.936 7.544 8.94 10.256 1.23.83 1.465 3.127 2.263 5.008-1.37 1.22-2.67 2.377-4.055 3.607l2.5 2.874-3.857 2.874c-1.223-.586-2.337-1.155-3.48-1.657-1.577-.69-3.188-.882-4.552.396-1.934 1.813-3.873 1.503-5.936.3a6.96 6.96 0 0 0-2.464-1.067c-1.823-.228-3.6-.23-4.41-2.392-.863-2.3-2.605-4.22-1.848-7.095.87-3.307.26-3.9-3.364-4.893a5.934 5.934 0 0 1-1.167-.73l1.978-2.485c-1.53-1.637-3.07-3.318-4.662-4.95a3.797 3.797 0 0 0-1.467-.204c.352 2.79 3.996 5.825-.547 8.418-.467-1.1-1.01-2.13-1.35-3.223-2.082-6.658-2.067-6.663-8.455-8.444l-1.422 1.98a35.647 35.647 0 0 0-4.25-2.078 2.23 2.23 0 0 0-1.47 1.124 1.56 1.56 0 0 0 .306 1.415c6.044 1.72 7.465 8.454 13.51 11.267-1.806 1.144-2.774 2.266-3.722 2.25-1.844-.033-3.677-.703-6.3-1.282-1.606.674.027 2.607.44 4.44-1.204 0-2.342.227-2.468-.035-1.57-3.26-4.468-3.18-7.694-3.017-1.074-2.805-2.085-5.885-6.654-5.703 2.786-3.587.778-6.072-.546-8.802-1.84-3.794-3.616-7.394-8.58-7.726a5.397 5.397 0 0 1-3.433-1.32c-1.562-1.762-3.228-.662-4.943-.57l-1.413-5.64c3.505-2.5 3.505-2.5 11.126 4.412a23.924 23.924 0 0 0 1.563-3.694c.818-3.403-1.72-5.823-5.325-5.137-2.795.532-5.58 1.268-8.417-.803 1.75-4.13 5.816-4.658 9.637-6.453-1.277-1.19-2.227-2.078-3.3-3.08a15.7 15.7 0 0 0-2.04-9.082c-1.14-2.063-1.09-4.78-1.707-7.897l4.852 1.072-2.963 1.206c-.5 3.548 2.26 1.504 3.602 2.167l-1.406 2.148c2.492 1.65 2.925 1.316 3.63-3.03h4.35c-1.246-2.72-3.705-1.298-4.506-1.673-2.515-3.394-3.977-7.005-6.64-8.546a29.44 29.44 0 0 1-8.463-7.03c-1.56-1.943-3.734-1.284-5.57-1.684-.553-2.536 4.762-3.56 1.01-6.646-.548.76-1.337 1.375-1.443 2.09-.318 2.164-1.384 3.31-3.582 3.17-1.97-.124-4.26.473-4.665-2.774-.126-1.005-1.81-1.816-3.247-3.15-.148 1.305-.234 1.78-.248 2.258-.014.448.047.9.117 2.03-3.014-2.516-4.41-5.33-5.792-7.925.758-3.285 4.805-4.608 4.162-8.118a61.88 61.88 0 0 0-2.246-7.254l-5.606.304c2.332 6.525 3.68 12.59-2.19 17.88-5.06-2.018-7.767-5.94-9.1-11.042a1.512 1.512 0 0 1-.077-1.02c3.54-3.68-.403-4.72-2.27-6.475a6.63 6.63 0 0 0-1.054-.645 3.624 3.624 0 0 0-1.127.866c-1.478 2.656-2.65 3.024-4.008.87-1.97-3.13-3.6-6.474-5.44-9.84-.824 1.663-1.715 3.558-4.245 3.395-2.083-1.31-2.002-3.134-1.133-5.162.838-1.955 1.056-3.787-1.175-5.208-3.164 2.573-.323 6.414-2.237 9.296a6.808 6.808 0 0 1-5.446-5.63c-.46-2.414-1.497-3.726-4.085-4.24-2.086-.416-4.044-1.63-4.067-4.376-.035-4.178-3.17-7.48-3.336-11.71-.045-1.124-1.68-2.185-2.644-3.347A42.412 42.412 0 0 0 .182 44.22c-.895-2.428 1.83-3.92 1.344-5.89-.46-1.865-1.733-3.494-.434-5.497.47-.727.496-1.832 1.083-2.383 2.96-2.784 5.798-5.8 9.135-8.06a115.166 115.166 0 0 1 16.197-9.555 65.222 65.222 0 0 1 21.058-6.013c8-.758 15.255 1.758 22.347 5.03 4.573 2.11 9.163 4.184 13.733 6.303 6.455 2.995 13.017 3 19.833 1.253 4.652-1.19 9.412-2.31 14.87-1.37-.836 1.06-1.504 1.945-2.21 2.797-2.736 3.305-3.63 7.36-3.918 11.397-.135 1.885 1.33 3.885 1.82 5.18 6.028 3.158 10.33 2.424 13.16-3.494l-1.883-2.856c2.75-1.147 4.242-4.24 8.434-4.737l-1.76 2.865c.596 1.187 1.376 1.78 2.34.412a4.515 4.515 0 0 0 .56-2.027c.602-5.17.59-5.172 5.84-5.603.89-2.553 1.35-5.517 2.87-7.763 1.636-2.423 3.512-4.54 3.335-8.143 5.055-1.724 10.102-3.34 15.07-5.174a11.7 11.7 0 0 1 10.283.628c3.14 1.755 6.357 3.397 9.368 5.353 6.17 4.008 12.432 7.925 18.276 12.376 6.712 5.112 13.128 10.634 19.436 16.244a31.9 31.9 0 0 0 7.85 5.624 71.677 71.677 0 0 1 14.35 8.526c3.377 2.614 7.692 3.99 11.188 6.478 4.676 3.33 9.046 7.11 13.39 10.875 2.722 2.36 5.194 4.893 8.488 6.622 3.15 1.652 5.79 4.253 8.833 6.15a54.844 54.844 0 0 0 8.99 4.713c9.695 3.767 19.662 6.885 29.182 11.04a109.254 109.254 0 0 1 17.984 9.675c5.75 3.917 12.24 6.754 18.448 9.985 4.16 2.165 8.39 4.188 12.588 6.278 7.635 3.803 13.83 8.978 17.122 17.176 2.476 6.168 5.217 12.23 7.91 18.31a10.38 10.38 0 0 0 2.195 3.576c5.755 5.142 7.647 12.002 8.66 19.205a65.15 65.15 0 0 1 1.01 12.854c-.5 8.22-.508 16.475-1.9 24.65-.824 4.83.344 9.632 1.866 14.285 1.612 4.928 3.08 9.905 4.773 14.805 1.016 2.94.066 5.24-1.897 7.266a41.214 41.214 0 0 1-5.558 5.16c-5.077 3.588-8.523 8.612-12.375 13.302-4.555 5.547-9.19 11.03-13.834 16.5a19.984 19.984 0 0 1-2.46 2.103l-8.377-4.167h5.75a5.672 5.672 0 0 1 1.622-1.937c3.038-1.542 4.435-4.606 6.713-6.836a9.546 9.546 0 0 0 1.724-2.075c.6-1.075 1.055-2.13.206-3.486-.905-1.448-2.13-1.354-3.293-1.043a18.585 18.585 0 0 0-8.414 4.56c-2.167 2.14-4.05 4.565-6.09 6.837-.963 1.074-2.008 2.077-3 3.127-1.044 1.107-2.07 2.23-3.417 3.688h-6.666c.047-1.774-1.1-3.356 1.086-5 1.732-1.303 2.242-3.73.054-6.008 1.692-.78 2.91-1.478 4.216-1.918 2.304-.774 3.757-1.76 2.838-4.654-.223-.7 1.108-1.973 1.85-2.88.686-.84 1.54-1.545 2.936-2.914-8.677.51-15.567 2.905-21.56 7.865-.83-.95-1.607-1.836-2.572-2.935-2.878 1.67-5.76 2.62-9.073 1.25-1.514-.626-3.177.086-4.355 1.486-1.047 1.246-2.19 2.408-3.09 3.386-5.523.295-10.573-.027-15.79.927-6.69 1.223-13.82 1.602-20.603-.627-3.05-1.002-6.014-2.267-9.03-3.38-1.835-.675-3.74-1.183-5.533-1.952-2.28-.978-4.477-2.145-6.82-3.285.548-2.69 1.286-4.012 4.12-4.34 6.865-.796 7.203-1.2 11.094-5.488-3.552-2.323-7.876.454-11.305-1.884-2.963-2.02-6.773-2.835-8.785-6.325zm-98.745-63.98c-8.21-2.762-11.748-2.278-13.76 2.06 3.13 1.534 5.33 5.335 9.6 3.42l5.358 4.86c.574-.933 1.34-1.618 1.225-2.086-.66-2.675-1.53-5.298-2.422-8.254zm-46.8-74.353c-1.605 4.005.347 6.304 2.28 8.357a14.775 14.775 0 0 0 4.547 2.783c.87.41 2.336.796 2.875.367.828-.66 1.763-2.29 1.468-3.052a45.247 45.247 0 0 0-3.936-7.488 3.472 3.472 0 0 0-2.386-.926c-1.58-.14-3.184-.04-4.848-.04zm-11.526 8.13l-5.37 4.33 4.114 5.827-.764 2.828 13.552 9.454 1.746-1.688c-2.362-2.103-4.19-5.07-6.35-5.337-3.197-.393-3.96-1.972-4.78-4.315a3.98 3.98 0 0 0-1.485-1.97c-1.92-1.184-1.833-2.98-1.66-4.782a39.99 39.99 0 0 1 .997-4.348zm50.667 32.305c-2.56 5.21 1.973 7.952 3.36 11.552.76 1.97 3.86 2.71 6.726 3.442-.328-3.694-3.1-4.05-5.45-5.107l2.314-3.668c-4.646-5.767-4.646-5.767-6.95-6.22zm-69.15-67.712c.77-2.598 4.013-3.93 3-6.746-1.088-3.02-4.08-3.875-7.218-4.417 2.816 3.196-1.258 8.394 4.218 11.163z" fill="#fefded"/><path d="M234.234 231.13c1.344 1.237 2.9 2.247 3.836 3.665.74 1.118.718 2.738 1.15 4.645l2.335-1.64a3.524 3.524 0 0 1 .785.433 48.077 48.077 0 0 0 5.017 4.698c4.323 3.016 8.824 5.777 13.37 8.715-1.636 2.73-3.8 1.757-5.91 1.785-.807-1.915-.007-5.003-2.52-5.027-2.405-.023-5.034-3.194-7.412.185 2.16 2.336 4.288 4.634 6.61 7.143-2.663.75-4.787 1.35-7.34 2.067-1.86-1.43-3.92-3.13-6.095-4.664-2.885-2.037-5.695-4.403-9.704-2.864-.768.294-1.746.04-3.158.04l1.902-3.082c-.97-3.35-4.14-3.382-6.815-4.444l-1.797 2.954c-.604-1.617-.88-2.2-1.04-2.81-.84-3.23-.83-3.232-4.39-2.77l2.19 4.204c-3.77 1.54-4.7-3.117-7.56-2.746-.065-1.66-1.593-3.45.486-4.948l2.467 3.818.78-.246a7.128 7.128 0 0 0-.23-2.023 27.945 27.945 0 0 0-1.76-3.037l6.865-7.805c2.33 3.604 4.524 6.993 6.81 10.53 2.413-1.537 1.233-3.66 1.036-5.8 3.927-.524 5.908 3.406 9.154 3.557 2.99-.962-.27-3.187.94-4.532zM182.95 197.922c1.865-1.216 1.357-2.662.423-3.613-2.208-2.25-2.034-4.78-1.59-7.447 1.442-.89 2.48-.95 2.974.795.7 2.46 1.994 4.1 5.176 3.764v-5.04l2.255-.203c2.435 5.437 2.435 5.437 1.917 8.338 2.74 2.13 5.342 4.282 8.09 6.234 1.405 1 2.945 2.195 5.196.954.15 2.96.473 5.422 3.556 7.18 2.48 1.416 1.783 4.782 2.105 8.468-4.763-4.37-6.686-9.083-8.687-14.128-1.41 1.332-2.18 2.06-3.164 2.987l4.123 4.51c-1.032.952-1.932 1.784-2.92 2.698a13.006 13.006 0 0 1-5.44-5.582c-3.018-5.234-7.5-8.955-14.012-9.916zM192.978 217.9l-4.575 3.903c-5.267-.764-8.836-2.97-12.455-7.32a9.76 9.76 0 0 0-3.54-2.158c-2.83-1.28-2.825-1.222-2.326-4.325.185-1.145.193-2.318.282-3.48 3.936-1.25 5.842-.167 9.408 2.61 4.048 3.15 6.847 7.91 12.082 9.558a3.82 3.82 0 0 1 1.124 1.212zM175.835 223.665c-.192 3.418-.192 3.418 4.382 5.946-1.68 1.055-3.24 2.433-5.053 3.02-1.112.362-2.767-.215-3.914-.848-2.637-1.456-5.112-3.203-7.855-4.963-.295-3.088-.61-6.366-.927-9.695 3.406-1.76 5.665 1.043 7.297 2.796a14.863 14.863 0 0 0 6.07 3.745zM227.516 200.113h-8.552c-2.533-2.37-4.64-4.34-6.738-6.305 2.31-2.634 3.02-2.92 5.502-1.19 3.154 2.196 6.12 4.663 9.788 7.495zM343.65 300a6.74 6.74 0 0 1 .207-1.457 1.632 1.632 0 0 1 .67-.812c5.44-2.46 10.897-4.89 16.983-7.608-.514 3.83-3.372 5.1-5.42 6.403A24.42 24.42 0 0 1 343.65 300zM204.124 172.532l6.574 7.27-2.142 2.83c-5.64-2.722-5.868-3.19-4.432-10.1zM208.853 221.62l-8.5-2.2v-3.34c3.467-.056 5.59 1.29 8.5 5.54z" fill="#fefded"/></svg>